<svg id="svg" version="1.1" xmlns="http://www.w3.org/2000/svg" xmlns:xlink="http://www.w3.org/1999/xlink" width="400" height="397.65625000000006" viewBox="0, 0, 400,397.65625000000006"><g id="svgg"><path id="path0" d="M193.066 117.578 C 188.954 117.913,185.613 118.406,182.422 119.149 C 179.354 119.864,175.703 120.882,174.707 121.301 C 174.492 121.391,173.921 121.593,173.438 121.749 C 170.426 122.724,163.204 126.050,160.380 127.763 C 159.698 128.177,159.103 128.516,159.057 128.516 C 158.905 128.516,153.236 132.397,152.051 133.313 C 150.919 134.187,149.705 135.195,147.855 136.800 C 145.035 139.243,139.303 145.479,137.336 148.242 C 136.232 149.793,133.203 154.284,133.203 154.369 C 133.203 154.415,132.860 155.018,132.440 155.708 C 131.276 157.624,128.820 162.591,127.922 164.844 C 125.683 170.462,124.051 175.970,123.263 180.566 C 120.219 198.310,122.221 211.509,130.047 225.293 C 131.622 228.065,134.313 231.996,136.719 235.035 C 142.736 242.638,152.112 250.814,159.473 254.877 C 160.117 255.233,161.172 255.820,161.816 256.181 C 165.592 258.300,172.371 261.120,176.074 262.114 C 176.396 262.200,177.144 262.404,177.734 262.566 C 182.271 263.813,185.746 264.499,190.430 265.073 C 193.105 265.400,204.057 265.404,206.836 265.078 C 212.086 264.462,216.687 263.597,220.961 262.420 C 223.001 261.859,228.427 259.973,230.014 259.274 C 230.425 259.093,230.938 258.872,231.152 258.784 C 233.789 257.697,239.562 254.621,242.079 252.962 C 242.837 252.462,243.600 251.965,243.776 251.857 C 254.352 245.329,265.202 232.724,270.807 220.452 C 271.223 219.543,271.403 219.663,268.864 219.157 C 266.587 218.704,265.406 218.272,263.639 217.245 C 262.178 216.396,262.276 216.353,261.215 218.311 C 257.379 225.388,249.374 234.753,242.485 240.221 C 212.686 263.870,169.619 259.419,145.733 230.222 C 145.126 229.480,144.295 228.463,143.887 227.962 C 139.824 222.970,135.655 215.523,134.029 210.352 C 131.428 202.076,131.340 189.354,133.815 179.102 C 138.536 159.540,151.159 143.415,168.848 134.349 C 184.037 126.564,202.133 125.137,218.945 130.398 C 242.430 137.746,260.315 158.340,263.875 182.129 C 264.188 184.217,264.199 184.247,264.601 184.076 C 267.231 182.959,271.048 182.246,273.097 182.489 L 274.068 182.604 273.934 181.097 C 273.860 180.268,273.724 179.282,273.632 178.906 C 273.540 178.530,273.359 177.695,273.228 177.051 C 272.949 175.666,272.324 173.152,272.087 172.461 C 271.995 172.192,271.812 171.577,271.680 171.094 C 271.548 170.610,271.368 170.039,271.280 169.824 C 271.191 169.609,270.932 168.862,270.703 168.164 C 270.474 167.466,270.213 166.719,270.122 166.504 C 270.032 166.289,269.739 165.541,269.471 164.841 C 268.613 162.599,266.277 157.719,265.218 155.957 C 264.895 155.420,264.581 154.827,264.519 154.639 C 264.458 154.451,264.330 154.297,264.235 154.297 C 264.140 154.297,264.063 154.203,264.063 154.089 C 264.063 153.830,260.435 148.401,259.112 146.680 C 256.128 142.796,251.277 137.754,247.649 134.766 C 247.062 134.282,246.406 133.724,246.191 133.525 C 245.977 133.327,245.273 132.806,244.629 132.368 C 243.984 131.930,243.413 131.515,243.359 131.444 C 242.483 130.296,231.919 124.442,228.223 123.057 C 227.578 122.816,226.875 122.547,226.660 122.461 C 224.846 121.731,221.196 120.534,219.531 120.123 C 219.155 120.030,218.496 119.862,218.066 119.750 C 215.859 119.173,212.677 118.535,210.254 118.182 C 209.502 118.073,208.228 117.886,207.422 117.766 C 205.595 117.494,195.695 117.365,193.066 117.578 M194.336 137.030 C 188.665 137.513,182.301 139.043,177.148 141.162 C 153.597 150.845,139.012 176.302,142.599 201.465 C 143.596 208.459,144.824 210.653,149.475 213.747 C 153.351 216.325,161.022 219.670,166.699 221.258 C 169.477 222.035,170.416 222.275,172.070 222.635 C 177.159 223.740,180.812 224.275,187.207 224.850 C 190.786 225.172,206.199 225.164,209.668 224.838 C 223.266 223.562,233.138 221.113,242.871 216.602 C 252.999 211.908,254.977 208.236,254.971 194.141 C 254.964 179.164,250.431 166.869,240.857 155.859 C 229.654 142.976,211.373 135.577,194.336 137.030 M211.094 164.532 C 212.326 165.173,213.013 166.659,212.706 168.019 C 211.927 171.474,206.673 170.875,206.645 167.328 C 206.628 165.128,209.169 163.531,211.094 164.532 M224.724 170.634 C 226.376 171.717,226.053 174.370,224.182 175.085 C 221.455 176.126,219.543 172.303,221.986 170.693 C 222.696 170.225,224.054 170.196,224.724 170.634 M199.939 185.174 C 201.617 185.987,202.498 187.711,202.285 189.772 C 201.836 194.118,195.756 194.861,194.053 190.778 C 192.583 187.253,196.510 183.514,199.939 185.174 M268.985 188.664 C 259.511 191.225,256.766 203.728,264.184 210.526 C 271.973 217.663,284.048 211.747,284.076 200.781 C 284.097 192.514,276.703 186.578,268.985 188.664 M181.870 199.973 C 185.102 201.358,185.806 205.802,183.199 208.357 C 180.097 211.398,174.906 209.155,174.915 204.778 C 174.922 201.063,178.557 198.552,181.870 199.973 " stroke="none" fill="#24243f" fill-rule="evenodd"></path><path id="path1" d="M0.000 198.828 L 0.000 397.656 199.619 397.656 L 399.239 397.656 399.571 396.924 C 399.882 396.236,399.905 384.012,399.952 198.096 L 400.001 0.000 200.000 0.000 L 0.000 0.000 0.000 198.828 M207.584 97.462 C 208.623 97.570,210.352 97.750,211.426 97.861 C 214.645 98.194,215.657 98.356,220.508 99.317 C 224.797 100.167,231.060 101.907,233.496 102.926 C 233.711 103.016,234.502 103.323,235.254 103.610 C 238.852 104.980,244.751 107.736,247.461 109.311 C 258.085 115.487,267.472 123.169,274.388 131.348 C 275.206 132.314,276.035 133.281,276.231 133.496 C 277.998 135.430,285.547 146.359,285.547 146.984 C 285.547 147.022,285.813 147.504,286.137 148.054 C 287.313 150.048,289.988 155.527,290.855 157.715 C 291.067 158.252,291.357 158.955,291.498 159.277 C 292.079 160.605,294.013 166.267,294.700 168.652 C 297.069 176.872,298.439 186.748,298.439 195.605 C 298.439 197.539,298.350 200.088,298.242 201.270 C 298.133 202.451,297.953 204.429,297.840 205.664 C 297.515 209.244,296.885 213.483,296.287 216.113 C 295.807 218.224,295.049 221.275,294.832 221.973 C 294.697 222.402,294.476 223.149,294.339 223.633 C 294.202 224.116,293.875 225.127,293.612 225.879 C 293.349 226.631,292.968 227.754,292.765 228.376 C 292.561 228.997,292.251 229.832,292.076 230.231 C 291.901 230.630,291.678 231.155,291.582 231.396 C 291.485 231.638,291.327 232.034,291.231 232.275 C 290.117 235.067,287.862 239.758,286.483 242.154 C 285.968 243.049,285.547 243.822,285.547 243.873 C 285.547 243.923,285.195 244.494,284.766 245.140 C 284.336 245.787,283.984 246.357,283.984 246.406 C 283.984 246.513,280.566 251.634,280.178 252.108 C 280.027 252.291,279.485 253.013,278.972 253.711 C 278.459 254.409,277.990 255.024,277.931 255.078 C 277.871 255.132,277.519 255.571,277.148 256.055 C 276.778 256.538,276.429 256.978,276.372 257.031 C 276.316 257.085,275.789 257.700,275.202 258.398 C 272.802 261.254,268.516 265.540,265.234 268.367 C 264.429 269.061,263.726 269.673,263.672 269.727 C 263.544 269.854,262.408 270.728,260.352 272.280 C 259.438 272.969,258.647 273.581,258.594 273.641 C 258.341 273.920,252.921 277.480,251.410 278.360 C 248.420 280.100,243.871 282.476,241.984 283.282 C 241.505 283.487,240.586 283.889,239.941 284.176 C 239.297 284.463,238.242 284.898,237.598 285.142 C 236.953 285.385,236.206 285.676,235.938 285.787 C 235.669 285.899,235.273 286.062,235.059 286.150 C 234.050 286.563,228.380 288.340,226.367 288.874 C 225.884 289.003,225.269 289.176,225.000 289.260 C 224.731 289.343,223.984 289.518,223.340 289.648 C 222.695 289.779,221.948 289.957,221.680 290.044 C 221.411 290.131,220.840 290.261,220.410 290.333 C 219.980 290.405,219.233 290.544,218.750 290.643 C 217.921 290.812,217.084 290.951,214.063 291.420 C 208.102 292.347,194.987 292.655,189.648 291.993 C 185.541 291.483,184.799 291.382,183.789 291.193 C 183.198 291.083,182.231 290.902,181.641 290.793 C 180.017 290.491,178.190 290.091,175.488 289.444 C 173.607 288.994,173.207 288.884,171.387 288.313 C 170.742 288.110,169.556 287.741,168.750 287.491 C 167.944 287.241,167.197 286.981,167.090 286.913 C 166.982 286.845,166.499 286.670,166.016 286.525 C 165.532 286.379,165.053 286.188,164.951 286.099 C 164.849 286.010,164.650 285.938,164.510 285.938 C 164.369 285.938,163.837 285.751,163.328 285.524 C 162.819 285.297,162.139 284.998,161.816 284.861 C 157.896 283.191,151.903 280.116,150.165 278.883 C 149.880 278.681,149.592 278.516,149.525 278.516 C 149.206 278.516,140.860 272.728,140.234 272.073 C 140.181 272.016,139.815 271.731,139.421 271.437 C 139.028 271.144,138.586 270.793,138.440 270.657 C 138.294 270.521,137.605 269.929,136.909 269.342 C 133.494 266.456,129.194 262.155,126.361 258.789 C 125.774 258.091,125.244 257.476,125.185 257.422 C 124.128 256.469,116.797 246.300,116.797 245.788 C 116.797 245.721,116.631 245.432,116.429 245.147 C 116.068 244.638,115.829 244.231,114.518 241.895 C 112.944 239.090,110.338 233.603,109.276 230.859 C 108.881 229.839,108.487 228.828,108.400 228.613 C 108.314 228.398,108.137 227.915,108.008 227.539 C 107.879 227.163,107.700 226.680,107.610 226.465 C 107.398 225.954,106.758 223.965,106.449 222.852 C 106.315 222.368,106.137 221.753,106.055 221.484 C 105.773 220.567,105.216 218.384,104.909 216.992 C 104.543 215.334,104.321 214.355,104.200 213.867 C 103.972 212.947,103.355 208.757,103.121 206.543 C 102.179 197.636,102.300 189.977,103.515 181.543 C 103.704 180.227,103.835 179.467,104.273 177.148 C 104.679 175.003,105.385 171.901,105.829 170.313 C 105.935 169.937,106.164 169.102,106.338 168.457 C 106.513 167.813,106.739 167.021,106.839 166.699 C 107.414 164.861,107.859 163.527,108.011 163.184 C 108.106 162.969,108.311 162.397,108.468 161.914 C 108.775 160.965,110.190 157.363,110.692 156.250 C 111.537 154.380,114.318 148.774,114.956 147.656 C 115.354 146.958,115.778 146.208,115.897 145.989 C 117.828 142.441,123.969 133.858,126.609 131.018 C 126.744 130.872,127.658 129.875,128.638 128.804 C 129.618 127.732,131.376 125.920,132.544 124.777 C 134.424 122.938,135.517 121.955,138.877 119.081 C 144.541 114.236,154.122 108.327,161.426 105.176 C 162.607 104.666,163.838 104.134,164.160 103.995 C 167.672 102.475,174.741 100.281,178.516 99.539 C 178.784 99.486,179.663 99.304,180.469 99.134 C 181.878 98.838,182.887 98.653,185.303 98.250 C 186.443 98.060,188.870 97.766,191.699 97.477 C 193.980 97.243,205.379 97.233,207.584 97.462 M193.652 127.653 C 188.328 128.037,179.612 129.912,176.074 131.434 C 175.859 131.527,175.156 131.802,174.512 132.046 C 161.904 136.816,149.610 147.202,142.236 159.311 C 140.331 162.439,137.109 168.906,137.109 169.602 C 137.109 169.742,137.051 169.915,136.980 169.986 C 136.611 170.356,134.739 176.243,134.020 179.297 C 133.403 181.919,133.124 183.530,132.585 187.598 C 132.087 191.350,132.330 200.811,133.032 204.980 C 135.979 222.489,153.978 242.719,173.242 250.176 C 174.155 250.529,175.078 250.894,175.293 250.987 C 175.828 251.218,178.654 252.154,179.492 252.378 C 179.868 252.479,180.483 252.650,180.859 252.758 C 184.095 253.692,187.168 254.252,191.992 254.786 C 195.048 255.124,202.883 255.179,205.553 254.880 C 210.990 254.273,213.402 253.814,218.848 252.348 C 222.529 251.358,229.595 248.374,233.105 246.328 C 233.428 246.140,234.131 245.730,234.668 245.416 C 239.646 242.510,244.807 238.291,250.000 232.881 C 251.662 231.149,251.882 230.900,253.513 228.904 C 253.995 228.315,254.434 227.788,254.490 227.734 C 255.602 226.652,260.006 220.121,261.036 218.027 C 261.950 216.169,262.133 216.046,263.068 216.662 C 265.602 218.332,268.819 219.219,272.266 219.198 C 279.660 219.153,286.920 213.262,288.825 205.762 C 289.365 203.635,289.453 202.956,289.453 200.937 C 289.453 192.245,284.096 185.329,275.625 183.087 C 274.462 182.778,269.744 182.707,268.828 182.983 C 268.517 183.078,267.778 183.267,267.188 183.404 C 266.114 183.653,265.909 183.726,265.091 184.149 C 264.093 184.665,264.134 184.746,263.370 180.762 C 262.511 176.275,261.729 173.577,259.947 168.945 C 252.668 150.023,237.211 135.957,217.285 130.123 C 214.951 129.439,211.480 128.663,209.277 128.331 C 208.525 128.218,207.295 128.033,206.543 127.919 C 205.194 127.715,195.548 127.516,193.652 127.653 M204.357 136.912 C 205.130 137.018,206.465 137.198,207.324 137.313 C 208.983 137.533,209.431 137.623,212.207 138.294 C 218.214 139.745,225.257 142.805,229.785 145.931 C 232.180 147.584,233.095 148.235,233.496 148.570 C 233.711 148.750,234.414 149.339,235.059 149.879 C 237.865 152.230,241.061 155.615,244.235 159.597 C 246.153 162.004,248.896 166.893,251.133 171.890 C 254.734 179.936,256.295 192.580,254.859 202.051 C 253.758 209.308,252.432 211.419,246.875 214.770 C 245.096 215.843,241.298 217.657,238.965 218.548 C 238.750 218.631,238.354 218.789,238.086 218.901 C 234.175 220.529,227.105 222.519,221.924 223.449 C 219.144 223.948,218.546 224.047,217.188 224.232 C 211.224 225.047,205.720 225.381,198.178 225.386 C 191.975 225.390,190.552 225.330,184.375 224.797 C 181.057 224.511,176.305 223.811,173.633 223.215 C 173.149 223.108,172.358 222.932,171.875 222.826 C 170.291 222.476,168.363 221.983,167.383 221.677 C 167.114 221.594,166.235 221.331,165.430 221.095 C 163.242 220.453,161.841 219.977,160.254 219.337 C 160.039 219.251,159.556 219.068,159.180 218.931 C 155.737 217.674,150.577 214.915,147.843 212.868 C 144.073 210.045,143.084 207.697,142.004 199.013 C 141.739 196.875,141.736 190.246,142.000 188.417 C 142.659 183.847,143.125 181.412,143.838 178.809 C 144.268 177.238,145.280 174.204,145.515 173.782 C 145.618 173.595,145.703 173.353,145.703 173.243 C 145.703 172.991,146.216 171.839,147.699 168.762 C 153.749 156.205,164.509 146.030,177.246 140.821 C 178.601 140.267,181.099 139.398,182.324 139.054 C 182.646 138.963,183.262 138.791,183.691 138.670 C 185.874 138.057,189.227 137.418,192.773 136.940 C 194.556 136.699,202.668 136.680,204.357 136.912 M208.336 164.784 C 206.475 165.762,206.593 169.042,208.519 169.846 C 210.538 170.690,212.498 169.452,212.499 167.331 C 212.501 165.137,210.266 163.769,208.336 164.784 M222.463 170.672 C 221.363 171.000,220.791 172.675,221.386 173.826 C 222.278 175.551,224.867 175.342,225.374 173.504 C 225.911 171.561,224.403 170.094,222.463 170.672 M197.274 185.108 C 194.219 185.464,192.999 189.899,195.345 192.121 C 198.040 194.674,202.028 192.907,202.028 189.160 C 202.028 186.344,200.181 184.770,197.274 185.108 M273.926 188.167 C 280.264 189.448,284.375 194.415,284.375 200.794 C 284.375 212.056,271.669 218.003,263.702 210.470 C 258.144 205.215,258.443 195.571,264.311 190.823 C 267.157 188.521,270.755 187.527,273.926 188.167 M178.710 199.976 C 173.348 201.733,174.275 209.462,179.843 209.428 C 185.779 209.392,186.263 200.383,180.355 199.908 C 179.719 199.857,178.979 199.887,178.710 199.976 " stroke="none" fill="#f4f4ec" fill-rule="evenodd"></path><path id="path2" d="M191.699 97.477 C 188.870 97.766,186.443 98.060,185.303 98.250 C 182.887 98.653,181.878 98.838,180.469 99.134 C 179.663 99.304,178.784 99.486,178.516 99.539 C 174.741 100.281,167.672 102.475,164.160 103.995 C 163.838 104.134,162.607 104.666,161.426 105.176 C 154.122 108.327,144.541 114.236,138.877 119.081 C 135.517 121.955,134.424 122.938,132.544 124.777 C 131.376 125.920,129.618 127.732,128.638 128.804 C 127.658 129.875,126.744 130.872,126.609 131.018 C 123.969 133.858,117.828 142.441,115.897 145.989 C 115.778 146.208,115.354 146.958,114.956 147.656 C 114.318 148.774,111.537 154.380,110.692 156.250 C 110.069 157.629,108.733 161.060,108.486 161.914 C 108.346 162.397,107.965 163.540,107.638 164.453 C 107.312 165.366,107.042 166.446,107.038 166.852 C 107.034 167.309,106.924 167.631,106.751 167.698 C 106.596 167.757,106.520 167.937,106.582 168.097 C 106.643 168.257,106.594 168.733,106.472 169.155 C 105.805 171.460,105.194 174.737,105.246 175.732 C 105.271 176.205,105.201 176.563,105.086 176.563 C 104.864 176.563,104.823 177.198,105.002 177.867 C 105.069 178.115,105.224 178.252,105.375 178.194 C 105.848 178.013,106.594 178.672,106.496 179.186 C 106.407 179.650,107.017 180.223,107.299 179.941 C 107.366 179.873,107.425 179.942,107.428 180.094 C 107.432 180.287,107.496 180.264,107.639 180.018 C 107.831 179.689,107.877 179.700,108.320 180.178 C 108.581 180.460,108.756 180.755,108.707 180.833 C 108.659 180.912,108.680 181.070,108.753 181.184 C 108.934 181.466,110.546 182.274,110.550 182.084 C 110.552 182.001,110.637 182.065,110.739 182.227 C 110.897 182.474,110.990 182.479,111.341 182.262 C 111.570 182.120,111.807 182.054,111.868 182.115 C 111.929 182.177,111.877 182.227,111.751 182.227 C 111.626 182.227,111.523 182.314,111.523 182.422 C 111.523 182.529,111.655 182.617,111.816 182.617 C 111.978 182.617,112.109 182.737,112.109 182.884 C 112.109 183.030,112.470 183.400,112.911 183.705 C 113.352 184.011,113.791 184.468,113.887 184.720 C 113.983 184.973,114.144 185.129,114.244 185.067 C 114.344 185.005,114.490 185.057,114.567 185.183 C 114.656 185.326,114.624 185.360,114.483 185.273 C 114.340 185.184,114.258 185.284,114.258 185.547 C 114.258 185.790,114.344 185.908,114.466 185.832 C 114.581 185.761,114.723 185.887,114.782 186.113 C 114.841 186.339,114.964 186.523,115.054 186.523 C 115.145 186.523,115.390 186.707,115.598 186.931 C 115.936 187.293,115.997 187.303,116.154 187.024 C 116.307 186.749,116.387 186.771,116.792 187.202 C 117.047 187.473,117.455 187.695,117.698 187.695 C 117.942 187.695,118.199 187.789,118.270 187.904 C 118.341 188.019,118.534 188.061,118.700 187.997 C 118.946 187.903,118.957 187.934,118.761 188.171 C 118.407 188.597,118.707 188.967,119.111 188.602 C 119.528 188.226,120.624 187.936,120.428 188.253 C 120.352 188.376,120.376 188.477,120.483 188.477 C 120.589 188.477,120.704 188.667,120.738 188.901 C 120.881 189.873,121.224 189.428,121.224 188.269 C 121.224 187.613,121.308 187.017,121.411 186.946 C 121.725 186.729,122.023 185.503,122.559 182.227 C 122.664 181.587,122.803 180.865,123.236 178.711 C 123.333 178.228,123.511 177.437,123.631 176.953 C 123.751 176.470,123.916 175.719,123.997 175.286 C 124.078 174.852,124.203 174.402,124.275 174.286 C 124.347 174.169,124.532 173.601,124.687 173.023 C 131.143 148.866,152.777 127.185,177.246 120.351 C 180.841 119.347,184.251 118.562,186.328 118.260 C 186.812 118.190,187.734 118.050,188.379 117.950 C 194.457 117.006,203.171 116.985,209.082 117.901 C 210.156 118.068,211.563 118.276,212.207 118.365 C 215.729 118.848,222.100 120.573,226.270 122.172 C 227.021 122.460,227.972 122.821,228.382 122.973 C 240.302 127.393,253.501 138.143,261.805 150.195 C 267.918 159.068,272.540 170.619,274.035 180.762 C 274.162 181.621,274.291 182.420,274.322 182.538 C 274.353 182.656,274.804 182.863,275.324 183.000 C 284.068 185.292,289.453 192.128,289.453 200.937 C 289.453 202.956,289.365 203.635,288.825 205.762 C 287.021 212.862,280.318 218.602,273.088 219.236 L 271.468 219.378 269.935 222.531 C 265.356 231.947,256.820 242.475,249.002 248.348 C 248.722 248.558,247.755 249.290,246.854 249.973 C 245.073 251.323,240.348 254.492,240.116 254.492 C 240.037 254.492,239.833 254.618,239.664 254.771 C 239.355 255.051,231.865 258.875,230.762 259.317 C 230.439 259.446,229.736 259.740,229.199 259.970 C 228.178 260.408,226.983 260.837,223.242 262.110 C 220.880 262.913,220.212 263.101,217.676 263.671 C 216.816 263.864,215.894 264.108,215.625 264.213 C 215.356 264.319,214.565 264.465,213.867 264.540 C 213.169 264.614,212.158 264.794,211.621 264.939 C 211.084 265.085,209.941 265.258,209.082 265.324 C 207.138 265.474,205.265 265.844,205.394 266.053 C 205.448 266.140,205.333 266.220,205.138 266.230 C 203.114 266.342,202.839 266.426,202.835 266.935 C 202.833 267.179,202.478 267.502,201.996 267.698 C 201.966 267.710,202.097 268.018,202.289 268.382 C 202.480 268.745,202.647 269.067,202.658 269.097 C 202.670 269.127,203.013 269.194,203.420 269.246 C 204.136 269.338,204.669 269.766,204.681 270.260 C 204.685 270.392,204.929 270.552,205.225 270.615 C 206.214 270.827,206.637 271.071,206.524 271.365 C 206.380 271.741,207.022 272.702,207.337 272.581 C 207.473 272.528,207.633 272.612,207.693 272.766 C 207.752 272.921,207.710 273.047,207.600 273.047 C 207.489 273.047,207.451 273.131,207.514 273.234 C 207.578 273.336,207.742 273.377,207.880 273.324 C 208.018 273.272,208.292 273.407,208.490 273.626 C 208.688 273.845,208.965 274.023,209.106 274.023 C 209.248 274.023,209.315 274.148,209.256 274.301 C 209.156 274.563,209.742 275.025,210.291 275.118 C 210.418 275.140,210.764 275.381,211.059 275.654 C 211.353 275.927,211.665 276.107,211.752 276.054 C 211.839 276.000,211.864 276.076,211.807 276.222 C 211.644 276.648,212.958 278.179,213.938 278.704 C 214.512 279.013,214.903 279.382,215.025 279.730 C 215.129 280.029,215.307 280.273,215.420 280.273 C 215.533 280.273,215.625 280.413,215.625 280.583 C 215.625 280.753,215.735 280.854,215.869 280.807 C 216.003 280.760,216.220 280.906,216.351 281.132 C 216.481 281.358,216.591 281.429,216.595 281.289 C 216.603 281.001,217.969 282.261,217.969 282.557 C 217.969 282.663,218.188 282.850,218.457 282.972 C 218.726 283.095,218.945 283.328,218.945 283.492 C 218.945 283.655,219.030 283.789,219.134 283.789 C 219.239 283.789,219.276 283.914,219.217 284.067 C 219.156 284.227,219.285 284.439,219.522 284.565 C 219.748 284.686,219.881 284.869,219.817 284.972 C 219.754 285.075,219.842 285.213,220.013 285.278 C 220.206 285.352,220.282 285.531,220.213 285.748 C 220.126 286.023,220.241 286.126,220.744 286.228 C 221.981 286.477,222.096 286.544,222.039 286.980 C 222.009 287.212,222.059 287.522,222.150 287.668 C 222.253 287.834,222.219 287.994,222.060 288.092 C 221.519 288.427,221.687 288.867,222.356 288.867 C 222.709 288.867,223.284 288.924,223.635 288.994 C 224.131 289.094,224.251 289.062,224.179 288.848 C 224.128 288.697,223.839 288.574,223.536 288.574 C 222.888 288.574,222.662 288.181,223.225 288.034 C 223.439 287.978,223.642 288.016,223.676 288.119 C 223.797 288.482,226.975 288.365,227.874 287.963 C 228.220 287.809,228.985 287.670,229.574 287.655 C 230.163 287.639,230.600 287.554,230.545 287.465 C 230.406 287.241,231.339 286.914,232.121 286.914 C 232.492 286.914,232.815 286.799,232.874 286.646 C 232.934 286.487,233.430 286.320,234.079 286.239 C 234.747 286.156,235.222 285.993,235.287 285.824 C 235.354 285.650,235.677 285.547,236.156 285.547 C 236.676 285.547,237.024 285.423,237.252 285.156 C 237.438 284.939,237.829 284.766,238.131 284.766 C 238.430 284.766,239.092 284.556,239.601 284.300 C 240.111 284.044,240.835 283.700,241.211 283.536 C 244.609 282.056,248.127 280.270,251.410 278.360 C 252.921 277.480,258.341 273.920,258.594 273.641 C 258.647 273.581,259.438 272.969,260.352 272.280 C 262.408 270.728,263.544 269.854,263.672 269.727 C 263.726 269.673,264.429 269.061,265.234 268.367 C 268.516 265.540,272.802 261.254,275.202 258.398 C 275.789 257.700,276.316 257.085,276.372 257.031 C 276.429 256.978,276.778 256.538,277.148 256.055 C 277.519 255.571,277.871 255.132,277.931 255.078 C 277.990 255.024,278.459 254.409,278.972 253.711 C 279.485 253.013,280.027 252.291,280.178 252.108 C 280.566 251.634,283.984 246.513,283.984 246.406 C 283.984 246.357,284.336 245.787,284.766 245.140 C 285.195 244.494,285.547 243.923,285.547 243.873 C 285.547 243.822,285.968 243.049,286.483 242.154 C 287.862 239.758,290.117 235.067,291.231 232.275 C 291.327 232.034,291.485 231.638,291.582 231.396 C 291.678 231.155,291.901 230.630,292.076 230.231 C 292.251 229.832,292.561 228.997,292.765 228.376 C 292.968 227.754,293.349 226.631,293.612 225.879 C 293.875 225.127,294.202 224.116,294.339 223.633 C 294.476 223.149,294.697 222.402,294.832 221.973 C 295.049 221.275,295.807 218.224,296.287 216.113 C 296.686 214.359,296.901 213.082,297.442 209.277 C 297.549 208.525,297.728 206.899,297.840 205.664 C 297.953 204.429,298.133 202.451,298.242 201.270 C 298.878 194.331,298.051 183.276,296.284 175.098 C 295.782 172.774,295.167 170.274,294.700 168.652 C 294.013 166.267,292.079 160.605,291.498 159.277 C 291.357 158.955,291.067 158.252,290.855 157.715 C 289.988 155.527,287.313 150.048,286.137 148.054 C 285.813 147.504,285.547 147.022,285.547 146.984 C 285.547 146.359,277.998 135.430,276.231 133.496 C 276.035 133.281,275.206 132.314,274.388 131.348 C 267.472 123.169,258.085 115.487,247.461 109.311 C 244.751 107.736,238.852 104.980,235.254 103.610 C 234.502 103.323,233.711 103.016,233.496 102.926 C 231.060 101.907,224.797 100.167,220.508 99.317 C 215.657 98.356,214.645 98.194,211.426 97.861 C 210.352 97.750,208.623 97.570,207.584 97.462 C 205.379 97.233,193.980 97.243,191.699 97.477 " stroke="none" fill="#f37d34" fill-rule="evenodd"></path><path id="path3" d="M198.492 117.331 C 199.006 117.372,199.797 117.371,200.250 117.330 C 200.703 117.289,200.283 117.256,199.316 117.257 C 198.350 117.257,197.979 117.291,198.492 117.331 M192.383 127.549 C 191.874 127.633,192.368 127.652,193.555 127.592 C 194.683 127.536,195.642 127.457,195.687 127.417 C 195.824 127.293,193.316 127.393,192.383 127.549 M203.027 127.547 C 203.672 127.627,204.595 127.689,205.078 127.686 L 205.957 127.679 204.883 127.531 C 204.292 127.449,203.369 127.387,202.832 127.392 L 201.855 127.401 203.027 127.547 M189.160 127.930 L 188.574 128.079 189.160 128.079 C 189.482 128.079,190.010 128.012,190.332 127.930 L 190.918 127.781 190.332 127.781 C 190.010 127.781,189.482 127.848,189.160 127.930 M207.129 127.930 C 207.451 128.012,207.979 128.079,208.301 128.079 L 208.887 128.079 208.301 127.930 C 207.979 127.848,207.451 127.781,207.129 127.781 L 206.543 127.781 207.129 127.930 M186.719 128.320 L 186.230 128.477 186.719 128.477 C 186.987 128.477,187.427 128.406,187.695 128.320 L 188.184 128.164 187.695 128.164 C 187.427 128.164,186.987 128.234,186.719 128.320 M209.766 128.320 C 210.034 128.406,210.430 128.479,210.645 128.482 L 211.035 128.488 210.645 128.320 C 210.430 128.228,210.034 128.155,209.766 128.158 L 209.277 128.164 209.766 128.320 M184.766 128.711 L 184.277 128.867 184.766 128.873 C 185.034 128.876,185.430 128.803,185.645 128.711 L 186.035 128.543 185.645 128.549 C 185.430 128.552,185.034 128.625,184.766 128.711 M211.816 128.711 C 212.031 128.803,212.427 128.876,212.695 128.873 L 213.184 128.867 212.695 128.711 C 212.427 128.625,212.031 128.552,211.816 128.549 L 211.426 128.543 211.816 128.711 M183.008 129.102 C 182.615 129.227,182.596 129.259,182.910 129.264 C 183.125 129.267,183.477 129.194,183.691 129.102 C 184.189 128.888,183.676 128.888,183.008 129.102 M213.574 129.102 C 213.789 129.194,214.141 129.269,214.355 129.269 L 214.746 129.269 214.355 129.102 C 214.141 129.009,213.789 128.934,213.574 128.934 L 213.184 128.934 213.574 129.102 M181.348 129.492 L 180.957 129.660 181.348 129.671 C 181.563 129.677,181.870 129.596,182.031 129.492 C 182.420 129.241,181.932 129.241,181.348 129.492 M215.234 129.492 C 215.396 129.596,215.703 129.677,215.918 129.671 L 216.309 129.660 215.918 129.492 C 215.334 129.241,214.846 129.241,215.234 129.492 M180.078 129.883 C 179.818 130.051,179.818 130.072,180.078 130.072 C 180.239 130.072,180.503 129.987,180.664 129.883 C 180.924 129.715,180.924 129.693,180.664 129.693 C 180.503 129.693,180.239 129.779,180.078 129.883 M217.969 130.273 C 218.130 130.378,218.394 130.463,218.555 130.463 C 218.815 130.463,218.815 130.442,218.555 130.273 C 218.394 130.169,218.130 130.084,217.969 130.084 C 217.708 130.084,217.708 130.105,217.969 130.273 M177.539 130.664 C 177.279 130.832,177.279 130.853,177.539 130.853 C 177.700 130.853,177.964 130.768,178.125 130.664 C 178.385 130.496,178.385 130.475,178.125 130.475 C 177.964 130.475,177.700 130.560,177.539 130.664 M176.367 131.055 C 176.107 131.223,176.107 131.244,176.367 131.244 C 176.528 131.244,176.792 131.159,176.953 131.055 C 177.214 130.886,177.214 130.865,176.953 130.865 C 176.792 130.865,176.528 130.951,176.367 131.055 M173.926 132.021 C 173.496 132.224,173.232 132.391,173.340 132.392 C 173.606 132.393,175.147 131.672,174.902 131.660 C 174.795 131.655,174.355 131.817,173.926 132.021 M224.198 132.440 C 224.671 132.649,225.092 132.786,225.134 132.743 C 225.219 132.659,223.714 132.023,223.482 132.045 C 223.404 132.053,223.726 132.230,224.198 132.440 M171.582 132.993 C 170.938 133.307,170.498 133.565,170.605 133.567 C 170.870 133.572,173.196 132.448,172.949 132.434 C 172.842 132.428,172.227 132.680,171.582 132.993 M227.166 133.677 C 227.357 133.867,230.762 135.514,230.828 135.448 C 230.868 135.408,230.102 134.975,229.126 134.485 C 227.534 133.686,226.923 133.433,227.166 133.677 M166.637 135.471 C 165.958 135.856,165.448 136.216,165.503 136.271 C 165.558 136.326,165.863 136.185,166.181 135.959 C 166.499 135.732,166.834 135.545,166.925 135.543 C 167.100 135.538,168.135 134.775,167.969 134.773 C 167.915 134.772,167.316 135.086,166.637 135.471 M231.055 135.634 C 231.055 135.688,231.318 135.869,231.641 136.035 C 231.963 136.202,232.227 136.294,232.227 136.241 C 232.227 136.187,231.963 136.006,231.641 135.840 C 231.318 135.673,231.055 135.581,231.055 135.634 M163.867 137.130 C 162.524 137.976,161.877 138.499,162.695 138.078 C 163.320 137.757,165.234 136.490,165.234 136.398 C 165.234 136.277,165.165 136.314,163.867 137.130 M232.422 136.384 C 232.422 136.502,233.938 137.500,234.117 137.500 C 234.194 137.500,234.174 137.426,234.072 137.336 C 233.765 137.065,232.422 136.290,232.422 136.384 M194.141 136.895 C 193.657 136.959,195.723 137.012,198.730 137.012 C 201.738 137.012,203.760 136.954,203.223 136.882 C 202.027 136.724,195.353 136.733,194.141 136.895 M190.820 137.305 C 190.135 137.524,190.851 137.532,191.895 137.316 L 192.676 137.154 191.992 137.151 C 191.616 137.150,191.089 137.219,190.820 137.305 M204.704 137.181 C 204.749 137.221,205.356 137.303,206.055 137.365 C 206.851 137.435,207.142 137.415,206.836 137.312 C 206.357 137.152,204.544 137.040,204.704 137.181 M188.379 137.695 L 187.988 137.863 188.379 137.854 C 188.594 137.849,189.033 137.777,189.355 137.695 L 189.941 137.546 189.355 137.537 C 189.033 137.532,188.594 137.603,188.379 137.695 M207.829 137.572 C 207.874 137.611,208.262 137.702,208.691 137.774 C 209.251 137.868,209.390 137.849,209.180 137.706 C 208.916 137.526,207.633 137.399,207.829 137.572 M234.375 137.561 C 234.375 137.606,234.749 137.890,235.205 138.191 C 235.662 138.492,235.932 138.613,235.806 138.461 C 235.564 138.168,234.375 137.420,234.375 137.561 M186.426 138.086 C 185.928 138.300,186.442 138.300,187.109 138.086 C 187.502 137.960,187.521 137.928,187.207 137.924 C 186.992 137.921,186.641 137.994,186.426 138.086 M209.782 137.962 C 209.827 138.002,210.215 138.088,210.645 138.153 C 211.189 138.236,211.307 138.218,211.035 138.095 C 210.660 137.925,209.614 137.814,209.782 137.962 M161.523 138.682 L 161.035 139.073 161.572 138.841 C 161.868 138.714,162.109 138.535,162.109 138.445 C 162.109 138.222,162.082 138.233,161.523 138.682 M184.766 138.477 C 184.377 138.727,184.865 138.727,185.449 138.477 L 185.840 138.309 185.449 138.298 C 185.234 138.292,184.927 138.372,184.766 138.477 M212.012 138.477 C 212.596 138.727,213.084 138.727,212.695 138.477 C 212.534 138.372,212.227 138.292,212.012 138.298 L 211.621 138.309 212.012 138.477 M183.301 138.867 C 183.055 138.973,183.018 139.035,183.203 139.035 C 183.364 139.035,183.672 138.960,183.887 138.867 C 184.133 138.761,184.169 138.699,183.984 138.699 C 183.823 138.699,183.516 138.775,183.301 138.867 M213.102 138.742 C 213.147 138.781,213.447 138.871,213.770 138.943 C 214.197 139.039,214.276 139.021,214.063 138.876 C 213.799 138.698,212.906 138.573,213.102 138.742 M160.156 139.665 L 159.473 140.258 160.203 139.807 C 160.604 139.558,160.934 139.290,160.935 139.209 C 160.939 138.996,160.907 139.015,160.156 139.665 M181.836 139.258 C 181.448 139.509,181.936 139.509,182.520 139.258 L 182.910 139.090 182.520 139.079 C 182.305 139.073,181.997 139.154,181.836 139.258 M214.469 139.133 C 214.514 139.171,214.814 139.262,215.137 139.334 C 215.565 139.430,215.644 139.412,215.430 139.267 C 215.166 139.088,214.273 138.964,214.469 139.133 M236.719 139.125 C 236.719 139.180,237.180 139.558,237.744 139.966 C 241.042 142.353,246.713 147.520,248.514 149.780 C 248.803 150.143,249.093 150.386,249.158 150.321 C 249.349 150.131,242.663 143.586,240.625 141.967 C 238.482 140.265,236.719 138.982,236.719 139.125 M180.664 139.648 C 180.404 139.817,180.404 139.838,180.664 139.838 C 180.825 139.838,181.089 139.753,181.250 139.648 C 181.510 139.480,181.510 139.459,181.250 139.459 C 181.089 139.459,180.825 139.544,180.664 139.648 M158.008 141.249 C 156.140 142.674,152.555 145.912,150.931 147.642 C 148.988 149.712,146.421 152.736,146.617 152.725 C 146.705 152.720,147.326 152.039,147.997 151.211 C 149.298 149.607,152.974 145.763,154.590 144.315 C 155.784 143.246,158.721 140.878,159.154 140.636 C 159.327 140.538,159.426 140.419,159.373 140.370 C 159.321 140.321,158.706 140.717,158.008 141.249 M176.818 141.086 C 176.260 141.322,175.733 141.585,175.646 141.672 C 175.478 141.840,177.418 141.108,177.922 140.813 C 178.457 140.500,177.858 140.648,176.818 141.086 M219.434 140.812 C 220.961 141.448,221.943 141.798,221.777 141.648 C 221.521 141.417,219.542 140.621,219.261 140.637 C 219.141 140.644,219.219 140.723,219.434 140.812 M173.389 142.688 C 172.449 143.167,171.680 143.603,171.680 143.656 C 171.680 143.744,175.176 142.055,175.374 141.872 C 175.659 141.609,174.864 141.936,173.389 142.688 M225.195 143.422 C 225.195 143.475,225.833 143.875,226.611 144.309 C 227.390 144.744,228.401 145.328,228.857 145.608 C 229.883 146.235,229.957 146.128,228.955 145.467 C 227.935 144.793,225.195 143.303,225.195 143.422 M170.703 144.157 L 170.215 144.555 170.850 144.245 C 171.199 144.075,171.484 143.894,171.484 143.843 C 171.484 143.648,171.173 143.773,170.703 144.157 M169.189 145.032 C 168.733 145.306,168.359 145.576,168.359 145.632 C 168.359 145.738,169.677 144.989,170.010 144.695 C 170.345 144.399,170.033 144.527,169.189 145.032 M166.837 146.568 C 165.929 147.210,165.802 147.393,166.568 146.954 C 166.925 146.750,167.309 146.472,167.422 146.338 C 167.710 145.993,167.575 146.046,166.837 146.568 M230.078 146.324 C 230.532 146.773,232.518 148.165,232.375 147.933 C 232.305 147.820,231.694 147.347,231.016 146.881 C 230.339 146.415,229.917 146.165,230.078 146.324 M165.032 147.867 L 164.355 148.468 164.984 148.053 C 165.542 147.685,165.963 147.266,165.776 147.266 C 165.738 147.266,165.404 147.536,165.032 147.867 M233.398 148.794 C 233.882 149.225,234.315 149.540,234.361 149.494 C 234.448 149.406,234.087 149.096,233.105 148.416 C 232.783 148.193,232.915 148.363,233.398 148.794 M163.375 149.069 C 162.338 149.911,162.049 150.197,162.242 150.188 C 162.420 150.179,164.415 148.448,164.253 148.442 C 164.197 148.439,163.802 148.722,163.375 149.069 M236.035 151.038 C 236.895 151.854,237.675 152.525,237.769 152.530 C 237.971 152.541,236.826 151.463,235.449 150.347 C 234.912 149.912,235.176 150.223,236.035 151.038 M159.222 152.881 C 157.042 155.051,154.095 158.398,154.364 158.398 C 154.415 158.398,155.055 157.675,155.786 156.792 C 156.517 155.908,158.208 154.107,159.544 152.788 C 160.880 151.469,161.917 150.391,161.848 150.391 C 161.779 150.391,160.597 151.511,159.222 152.881 M250.012 151.615 C 250.489 152.219,250.953 152.717,251.044 152.723 C 251.225 152.735,249.704 150.863,249.359 150.650 C 249.241 150.577,249.535 151.011,250.012 151.615 M145.006 154.736 C 144.283 155.730,143.606 156.653,143.501 156.787 C 143.397 156.921,143.356 157.031,143.411 157.031 C 143.465 157.031,144.106 156.218,144.835 155.225 C 145.564 154.231,146.244 153.308,146.346 153.174 C 146.448 153.040,146.485 152.930,146.426 152.930 C 146.368 152.930,145.729 153.743,145.006 154.736 M251.926 154.041 C 252.370 154.705,252.841 155.317,252.975 155.399 C 253.108 155.481,252.874 155.069,252.455 154.483 C 251.344 152.932,250.985 152.631,251.926 154.041 M239.648 154.394 C 239.648 154.475,240.286 155.262,241.064 156.143 C 241.843 157.024,242.772 158.089,243.127 158.511 C 243.550 159.012,243.641 159.074,243.391 158.691 C 243.179 158.369,242.547 157.578,241.985 156.934 C 241.423 156.289,240.668 155.421,240.306 155.004 C 239.944 154.587,239.648 154.313,239.648 154.394 M254.175 157.324 C 254.333 157.646,254.605 158.086,254.780 158.301 C 255.076 158.666,255.078 158.653,254.809 158.105 C 254.651 157.783,254.379 157.344,254.205 157.129 C 253.908 156.764,253.906 156.776,254.175 157.324 M142.733 157.959 C 142.468 158.362,142.142 158.911,142.010 159.180 L 141.771 159.668 142.165 159.180 C 142.616 158.621,143.426 157.227,143.300 157.227 C 143.254 157.227,142.999 157.556,142.733 157.959 M153.879 158.936 C 153.317 159.614,153.079 159.961,153.176 159.961 C 153.230 159.961,153.509 159.653,153.795 159.277 C 154.328 158.580,154.392 158.316,153.879 158.936 M244.111 159.920 C 244.352 160.258,244.651 160.598,244.774 160.674 C 244.898 160.750,244.802 160.536,244.561 160.197 C 244.320 159.859,244.021 159.520,243.898 159.443 C 243.774 159.367,243.870 159.581,244.111 159.920 M255.476 159.473 C 255.477 159.580,255.657 159.888,255.877 160.156 C 256.142 160.481,256.208 160.513,256.074 160.254 C 255.745 159.617,255.475 159.264,255.476 159.473 M152.695 160.498 C 152.163 161.113,150.355 163.897,150.436 163.977 C 150.479 164.020,151.097 163.178,151.810 162.106 C 153.075 160.203,153.295 159.804,152.695 160.498 M256.543 161.328 C 256.710 161.650,256.890 161.914,256.944 161.914 C 256.997 161.914,256.905 161.650,256.738 161.328 C 256.572 161.006,256.391 160.742,256.338 160.742 C 256.284 160.742,256.376 161.006,256.543 161.328 M140.375 161.963 C 139.446 163.559,138.038 166.519,138.360 166.197 C 138.520 166.038,141.006 161.133,140.927 161.133 C 140.889 161.133,140.640 161.506,140.375 161.963 M245.937 162.549 C 246.090 162.791,246.418 163.322,246.665 163.731 C 246.912 164.139,247.155 164.433,247.204 164.384 C 247.300 164.289,245.907 162.109,245.751 162.109 C 245.700 162.109,245.784 162.307,245.937 162.549 M209.229 164.398 C 209.524 164.442,210.007 164.442,210.303 164.398 C 210.598 164.353,210.356 164.316,209.766 164.316 C 209.175 164.316,208.933 164.353,209.229 164.398 M207.754 164.946 C 206.806 165.781,206.395 167.290,206.852 168.262 C 206.989 168.553,207.008 168.467,206.927 167.923 C 206.758 166.782,207.137 165.727,207.959 165.049 C 208.357 164.721,208.597 164.456,208.492 164.459 C 208.387 164.463,208.055 164.682,207.754 164.946 M211.655 165.187 C 212.066 165.607,212.439 165.921,212.484 165.885 C 212.601 165.791,211.692 164.846,211.265 164.616 C 211.068 164.510,211.244 164.767,211.655 165.187 M247.552 165.186 C 247.722 165.535,247.903 165.820,247.954 165.820 C 248.148 165.820,248.023 165.509,247.640 165.039 L 247.242 164.551 247.552 165.186 M149.128 166.130 C 148.946 166.408,148.831 166.669,148.872 166.710 C 148.913 166.751,149.100 166.524,149.289 166.205 C 149.710 165.492,149.584 165.434,149.128 166.130 M248.967 167.863 C 249.472 168.880,249.917 169.680,249.955 169.642 C 250.041 169.555,248.274 166.016,248.144 166.016 C 248.092 166.016,248.462 166.847,248.967 167.863 M212.520 167.319 C 212.497 168.678,211.990 169.508,210.863 170.027 C 210.408 170.237,210.377 170.277,210.742 170.185 C 212.154 169.826,213.047 168.256,212.693 166.758 C 212.563 166.211,212.537 166.297,212.520 167.319 M259.007 166.309 C 259.010 166.416,259.182 166.855,259.389 167.285 C 259.596 167.715,259.710 167.847,259.643 167.578 C 259.506 167.025,258.996 166.010,259.007 166.309 M137.820 167.116 C 137.635 167.504,137.526 167.864,137.578 167.916 C 137.630 167.968,137.811 167.680,137.979 167.276 C 138.378 166.323,138.256 166.201,137.820 167.116 M147.939 168.379 C 147.555 169.142,147.272 169.798,147.311 169.837 C 147.350 169.876,147.707 169.252,148.104 168.450 C 148.500 167.648,148.783 166.992,148.731 166.992 C 148.680 166.992,148.323 167.616,147.939 168.379 M207.228 169.102 C 207.442 169.542,208.498 170.311,208.887 170.311 C 208.994 170.311,208.783 170.129,208.417 169.906 C 208.052 169.683,207.585 169.310,207.381 169.076 L 207.009 168.652 207.228 169.102 M250.008 170.068 C 250.019 170.264,250.763 171.616,250.773 171.459 C 250.787 171.257,250.198 169.922,250.095 169.922 C 250.043 169.922,250.004 169.988,250.008 170.068 M221.986 170.693 C 219.788 172.141,221.389 176.106,223.812 175.216 C 224.252 175.055,224.191 175.028,223.340 175.011 C 220.968 174.963,220.106 171.793,222.195 170.801 C 222.556 170.630,222.852 170.450,222.852 170.401 C 222.852 170.221,222.543 170.325,221.986 170.693 M224.655 170.907 C 225.806 171.856,225.889 173.465,224.841 174.526 C 224.379 174.994,224.369 175.030,224.754 174.828 C 226.118 174.111,226.100 171.536,224.724 170.634 C 223.921 170.108,223.880 170.268,224.655 170.907 M135.653 172.665 C 135.353 173.528,135.150 174.277,135.202 174.329 C 135.254 174.381,135.533 173.708,135.822 172.834 C 136.111 171.959,136.314 171.210,136.274 171.170 C 136.233 171.129,135.954 171.802,135.653 172.665 M251.654 173.991 C 252.083 175.383,252.707 177.011,252.715 176.758 C 252.727 176.382,251.877 173.880,251.671 173.684 C 251.584 173.602,251.577 173.740,251.654 173.991 M145.243 174.660 C 144.789 175.850,144.863 176.076,145.330 174.925 C 145.543 174.401,145.682 173.938,145.641 173.896 C 145.599 173.854,145.420 174.198,145.243 174.660 M134.487 176.283 C 134.415 176.570,134.400 176.848,134.454 176.902 C 134.507 176.955,134.610 176.765,134.682 176.479 C 134.754 176.193,134.769 175.914,134.715 175.861 C 134.661 175.807,134.558 175.997,134.487 176.283 M262.503 176.481 C 262.505 176.687,262.595 176.987,262.704 177.148 C 262.849 177.362,262.867 177.283,262.771 176.855 C 262.611 176.137,262.499 175.981,262.503 176.481 M144.262 177.449 C 144.195 177.624,144.148 177.913,144.157 178.092 C 144.167 178.271,144.252 178.159,144.346 177.842 C 144.530 177.225,144.465 176.920,144.262 177.449 M252.751 177.344 C 252.757 177.505,252.837 177.813,252.930 178.027 L 253.098 178.418 253.108 178.027 C 253.114 177.813,253.034 177.505,252.930 177.344 C 252.761 177.083,252.742 177.083,252.751 177.344 M134.096 177.846 C 134.024 178.132,134.009 178.410,134.063 178.464 C 134.117 178.518,134.219 178.328,134.291 178.041 C 134.363 177.755,134.378 177.477,134.324 177.423 C 134.271 177.370,134.168 177.560,134.096 177.846 M262.924 178.027 C 262.921 178.242,262.994 178.594,263.086 178.809 C 263.300 179.306,263.300 178.793,263.086 178.125 C 262.960 177.732,262.928 177.713,262.924 178.027 M143.884 178.786 C 143.810 178.977,143.756 179.280,143.762 179.459 C 143.771 179.675,143.838 179.626,143.963 179.314 C 144.067 179.054,144.121 178.751,144.084 178.640 C 144.047 178.529,143.957 178.594,143.884 178.786 M253.158 178.711 C 253.168 179.218,253.476 180.052,253.482 179.590 C 253.486 179.375,253.413 179.023,253.320 178.809 C 253.217 178.569,253.155 178.531,253.158 178.711 M133.813 178.906 C 133.797 179.067,133.735 179.419,133.675 179.688 C 133.582 180.110,133.597 180.129,133.788 179.828 C 133.910 179.637,133.972 179.286,133.926 179.047 C 133.880 178.809,133.829 178.745,133.813 178.906 M263.314 179.883 C 263.311 180.151,263.384 180.547,263.477 180.762 L 263.644 181.152 263.639 180.762 C 263.636 180.547,263.563 180.151,263.477 179.883 L 263.320 179.395 263.314 179.883 M143.485 180.315 C 143.419 180.560,143.372 180.938,143.382 181.152 C 143.391 181.367,143.479 181.200,143.577 180.781 C 143.768 179.970,143.686 179.561,143.485 180.315 M253.549 180.273 C 253.559 180.781,253.866 181.614,253.873 181.152 C 253.876 180.938,253.803 180.586,253.711 180.371 C 253.608 180.132,253.545 180.094,253.549 180.273 M133.312 181.163 C 133.238 181.555,133.222 181.920,133.276 181.974 C 133.329 182.027,133.433 181.750,133.507 181.359 C 133.580 180.967,133.597 180.602,133.543 180.548 C 133.489 180.494,133.385 180.771,133.312 181.163 M263.714 181.836 C 263.712 182.104,263.781 182.544,263.867 182.813 C 264.077 183.469,264.077 182.760,263.867 181.934 C 263.733 181.407,263.718 181.397,263.714 181.836 M143.091 181.941 C 143.024 182.116,142.978 182.493,142.988 182.780 C 143.004 183.199,143.043 183.152,143.187 182.539 C 143.370 181.757,143.308 181.374,143.091 181.941 M274.039 182.058 C 274.024 182.566,274.009 182.571,272.803 182.489 C 272.131 182.443,271.011 182.484,270.313 182.579 C 269.193 182.732,269.342 182.750,271.581 182.728 C 274.222 182.702,274.484 182.605,274.152 181.783 C 274.098 181.651,274.047 181.775,274.039 182.058 M254.034 182.520 C 254.100 182.949,254.186 183.337,254.225 183.382 C 254.373 183.550,254.262 182.504,254.092 182.129 C 253.969 181.857,253.952 181.975,254.034 182.520 M132.932 183.177 C 132.856 183.754,132.835 184.267,132.886 184.318 C 133.016 184.448,133.263 182.697,133.158 182.385 C 133.111 182.244,133.009 182.601,132.932 183.177 M267.578 183.008 L 267.090 183.164 267.578 183.170 C 267.847 183.173,268.242 183.100,268.457 183.008 L 268.848 182.840 268.457 182.846 C 268.242 182.849,267.847 182.922,267.578 183.008 M142.713 183.989 C 142.642 184.255,142.592 184.736,142.602 185.059 C 142.617 185.526,142.656 185.467,142.794 184.766 C 142.983 183.805,142.921 183.211,142.713 183.989 M254.432 184.766 C 254.494 185.464,254.576 186.072,254.616 186.117 C 254.757 186.277,254.645 184.463,254.485 183.984 C 254.382 183.678,254.362 183.970,254.432 184.766 M132.537 185.908 C 132.459 186.697,132.437 187.385,132.489 187.437 C 132.618 187.566,132.876 185.054,132.767 184.732 C 132.719 184.589,132.616 185.118,132.537 185.908 M196.738 184.982 C 196.394 185.081,196.066 185.238,196.009 185.331 C 195.952 185.423,196.277 185.369,196.732 185.211 C 198.441 184.615,200.763 185.362,201.474 186.736 C 201.646 187.069,201.839 187.288,201.903 187.224 C 202.122 187.006,200.851 185.661,200.003 185.213 C 199.106 184.738,197.880 184.652,196.738 184.982 M195.313 185.797 C 195.151 185.928,194.891 186.211,194.734 186.426 C 194.577 186.641,194.731 186.558,195.076 186.243 C 195.638 185.728,195.801 185.534,195.654 185.553 C 195.627 185.557,195.474 185.666,195.313 185.797 M142.313 186.369 C 142.247 186.615,142.203 187.212,142.215 187.695 C 142.235 188.488,142.253 188.451,142.400 187.314 C 142.567 186.021,142.526 185.573,142.313 186.369 M254.827 187.988 C 254.886 188.955,254.967 189.783,255.006 189.827 C 255.143 189.983,255.031 187.399,254.876 186.816 C 254.785 186.475,254.765 186.965,254.827 187.988 M202.094 188.672 C 202.156 189.511,202.090 190.222,201.899 190.768 C 201.740 191.223,201.684 191.549,201.775 191.494 C 202.241 191.205,202.506 188.651,202.158 187.793 C 202.066 187.565,202.039 187.930,202.094 188.672 M193.873 188.135 C 193.504 189.513,193.930 191.060,194.981 192.155 C 195.626 192.828,196.644 193.460,196.811 193.293 C 196.864 193.240,196.593 193.048,196.208 192.866 C 194.668 192.135,193.791 190.429,194.030 188.628 C 194.160 187.651,194.074 187.383,193.873 188.135 M132.158 189.678 C 132.004 191.856,132.030 198.644,132.201 200.391 C 132.269 201.089,132.324 198.562,132.324 194.775 C 132.324 190.989,132.315 187.891,132.305 187.891 C 132.294 187.891,132.228 188.695,132.158 189.678 M271.431 188.227 C 271.778 188.270,272.393 188.271,272.798 188.228 C 273.204 188.186,272.920 188.151,272.168 188.150 C 271.416 188.149,271.084 188.184,271.431 188.227 M269.043 188.486 C 268.771 188.609,268.889 188.627,269.434 188.544 C 269.863 188.478,270.251 188.392,270.296 188.353 C 270.464 188.205,269.418 188.316,269.043 188.486 M273.844 188.353 C 273.889 188.392,274.277 188.484,274.707 188.556 C 275.267 188.649,275.405 188.630,275.195 188.487 C 274.932 188.307,273.648 188.180,273.844 188.353 M141.924 190.186 C 141.768 191.844,141.789 196.267,141.960 197.559 C 142.032 198.096,142.092 196.360,142.094 193.701 C 142.097 191.042,142.088 188.867,142.074 188.867 C 142.060 188.867,141.993 189.460,141.924 190.186 M277.555 189.513 C 278.624 190.305,279.687 190.981,279.684 190.869 C 279.680 190.713,277.831 189.453,277.606 189.453 C 277.534 189.453,277.511 189.480,277.555 189.513 M263.804 191.455 L 262.566 192.676 263.753 191.615 C 264.407 191.031,265.025 190.482,265.127 190.394 C 265.229 190.306,265.252 190.234,265.178 190.234 C 265.103 190.234,264.485 190.784,263.804 191.455 M255.160 194.141 C 255.160 196.235,255.189 197.092,255.224 196.045 C 255.259 194.998,255.259 193.284,255.224 192.236 C 255.189 191.189,255.160 192.046,255.160 194.141 M121.928 191.406 C 121.928 191.890,121.966 192.087,122.013 191.846 C 122.059 191.604,122.059 191.208,122.013 190.967 C 121.966 190.725,121.928 190.923,121.928 191.406 M201.006 192.110 C 200.861 192.274,200.781 192.447,200.828 192.495 C 200.875 192.542,201.073 192.404,201.268 192.189 C 201.463 191.973,201.544 191.800,201.446 191.804 C 201.349 191.808,201.151 191.946,201.006 192.110 M199.805 192.969 C 199.429 193.175,199.191 193.347,199.277 193.351 C 199.484 193.362,200.586 192.789,200.586 192.671 C 200.586 192.543,200.575 192.547,199.805 192.969 M281.961 193.629 C 282.363 194.227,282.728 194.681,282.772 194.637 C 282.868 194.540,281.713 192.841,281.432 192.668 C 281.320 192.599,281.558 193.031,281.961 193.629 M197.805 193.498 C 198.048 193.544,198.400 193.542,198.586 193.494 C 198.773 193.445,198.574 193.406,198.145 193.409 C 197.715 193.411,197.562 193.451,197.805 193.498 M261.241 194.641 C 261.060 194.916,260.943 195.231,260.979 195.340 C 261.016 195.449,261.196 195.224,261.379 194.840 C 261.769 194.022,261.706 193.931,261.241 194.641 M283.607 197.010 C 283.652 197.517,283.957 197.947,283.971 197.521 C 283.978 197.286,283.896 197.039,283.789 196.973 C 283.682 196.906,283.600 196.923,283.607 197.010 M121.938 198.242 C 121.938 198.940,121.973 199.226,122.016 198.877 C 122.060 198.528,122.060 197.957,122.016 197.607 C 121.973 197.258,121.938 197.544,121.938 198.242 M259.889 198.486 C 259.730 199.078,259.759 202.747,259.926 203.165 C 259.999 203.349,260.059 202.272,260.059 200.773 C 260.059 197.813,260.061 197.844,259.889 198.486 M284.082 200.800 C 284.082 202.199,284.139 203.140,284.209 202.892 C 284.378 202.291,284.383 199.014,284.215 198.591 C 284.142 198.407,284.082 199.401,284.082 200.800 M254.919 199.143 C 254.899 199.584,254.840 200.375,254.788 200.900 L 254.693 201.855 254.894 201.074 C 255.004 200.645,255.063 199.854,255.024 199.316 C 254.960 198.405,254.953 198.393,254.919 199.143 M142.207 200.016 C 142.218 200.491,142.300 201.099,142.390 201.367 C 142.493 201.673,142.513 201.382,142.443 200.586 C 142.312 199.100,142.179 198.778,142.207 200.016 M177.832 200.075 C 176.456 200.726,174.965 202.545,175.015 203.513 C 175.024 203.675,175.126 203.545,175.241 203.223 C 175.833 201.576,176.885 200.557,178.609 199.961 C 179.149 199.775,179.414 199.620,179.199 199.618 C 178.984 199.615,178.369 199.821,177.832 200.075 M180.664 199.805 C 181.417 200.046,181.818 200.046,181.445 199.805 C 181.284 199.701,180.933 199.623,180.664 199.632 L 180.176 199.648 180.664 199.805 M122.116 200.586 C 122.116 200.962,122.156 201.116,122.205 200.928 C 122.254 200.740,122.254 200.432,122.205 200.244 C 122.156 200.056,122.116 200.210,122.116 200.586 M182.129 200.227 C 182.344 200.345,182.831 200.716,183.211 201.051 C 183.678 201.462,183.634 201.390,183.076 200.830 C 182.621 200.374,182.134 200.003,181.994 200.006 C 181.853 200.009,181.914 200.109,182.129 200.227 M132.514 203.223 C 132.588 203.975,132.771 205.117,132.920 205.762 C 133.211 207.024,133.187 206.570,132.815 203.809 C 132.532 201.702,132.323 201.295,132.514 203.223 M183.984 202.125 C 183.984 202.233,184.062 202.369,184.158 202.428 C 184.253 202.487,184.396 202.865,184.476 203.269 C 184.555 203.673,184.660 203.895,184.709 203.761 C 184.817 203.465,184.416 202.197,184.165 202.042 C 184.066 201.980,183.984 202.018,183.984 202.125 M142.592 202.751 C 142.599 203.118,142.686 203.594,142.783 203.809 C 142.903 204.072,142.922 203.880,142.842 203.223 C 142.701 202.060,142.573 201.819,142.592 202.751 M254.522 202.637 C 254.503 202.959,254.438 203.442,254.378 203.711 C 254.285 204.131,254.301 204.151,254.490 203.854 C 254.612 203.664,254.676 203.181,254.634 202.780 C 254.568 202.150,254.553 202.131,254.522 202.637 M283.705 204.213 C 283.634 204.499,283.619 204.778,283.672 204.831 C 283.726 204.885,283.829 204.695,283.901 204.408 C 283.973 204.122,283.987 203.844,283.934 203.790 C 283.880 203.737,283.777 203.927,283.705 204.213 M174.858 204.883 C 174.858 205.366,174.896 205.564,174.943 205.322 C 174.989 205.081,174.989 204.685,174.943 204.443 C 174.896 204.202,174.858 204.399,174.858 204.883 M143.002 204.785 C 142.999 205.000,143.072 205.352,143.164 205.566 C 143.378 206.064,143.378 205.551,143.164 204.883 C 143.038 204.490,143.007 204.471,143.002 204.785 M254.028 205.103 C 253.960 205.446,253.940 205.763,253.984 205.807 C 254.028 205.851,254.125 205.611,254.199 205.273 C 254.273 204.936,254.293 204.619,254.244 204.569 C 254.194 204.519,254.097 204.759,254.028 205.103 M184.406 206.112 C 184.156 207.102,183.143 208.394,182.129 209.015 C 181.807 209.212,181.641 209.374,181.761 209.374 C 182.729 209.378,185.021 206.333,184.723 205.439 C 184.677 205.300,184.534 205.603,184.406 206.112 M122.689 205.957 C 122.686 206.172,122.759 206.523,122.852 206.738 C 123.065 207.236,123.065 206.722,122.852 206.055 C 122.726 205.662,122.694 205.643,122.689 205.957 M175.011 206.016 C 174.977 206.788,176.413 208.612,177.441 209.101 C 177.764 209.255,177.860 209.269,177.655 209.134 C 176.628 208.452,175.868 207.620,175.467 206.738 C 175.222 206.201,175.017 205.876,175.011 206.016 M143.362 206.364 C 143.364 206.570,143.455 206.870,143.564 207.031 C 143.708 207.245,143.727 207.166,143.631 206.738 C 143.470 206.020,143.358 205.864,143.362 206.364 M283.023 206.164 C 283.015 206.278,282.707 206.871,282.338 207.482 C 281.970 208.094,281.732 208.594,281.809 208.594 C 282.035 208.594,283.225 206.408,283.127 206.172 C 283.069 206.031,283.033 206.028,283.023 206.164 M133.231 207.324 C 133.231 207.539,133.306 207.891,133.398 208.105 L 133.566 208.496 133.566 208.105 C 133.566 207.891,133.491 207.539,133.398 207.324 L 133.231 206.934 133.231 207.324 M253.171 208.051 C 253.041 208.412,252.620 209.231,252.237 209.871 C 251.854 210.511,251.714 210.859,251.926 210.645 C 252.408 210.158,253.569 207.876,253.477 207.599 C 253.439 207.486,253.302 207.690,253.171 208.051 M123.074 208.008 C 123.074 208.169,123.150 208.477,123.242 208.691 C 123.348 208.938,123.410 208.974,123.410 208.789 C 123.410 208.628,123.335 208.320,123.242 208.105 C 123.136 207.859,123.074 207.823,123.074 208.008 M261.719 207.978 C 261.719 208.068,261.908 208.310,262.140 208.515 L 262.560 208.887 262.215 208.350 C 261.858 207.796,261.719 207.691,261.719 207.978 M103.767 209.082 C 103.768 209.619,103.806 209.816,103.851 209.519 C 103.896 209.222,103.895 208.782,103.848 208.542 C 103.802 208.302,103.765 208.545,103.767 209.082 M133.621 208.887 C 133.621 209.102,133.697 209.453,133.789 209.668 L 133.957 210.059 133.957 209.668 C 133.957 209.453,133.881 209.102,133.789 208.887 L 133.621 208.496 133.621 208.887 M280.268 210.092 C 279.467 210.917,279.299 211.150,279.808 210.727 C 280.545 210.115,281.773 208.789,281.604 208.789 C 281.564 208.789,280.963 209.375,280.268 210.092 M262.891 209.469 C 263.521 210.219,264.208 210.857,264.941 211.371 C 265.614 211.843,265.600 211.828,263.770 210.145 C 263.018 209.453,262.622 209.149,262.891 209.469 M144.751 209.570 C 145.041 210.191,145.880 211.158,146.823 211.959 C 147.228 212.303,146.987 211.970,146.289 211.219 C 145.591 210.469,144.908 209.681,144.771 209.468 C 144.560 209.139,144.557 209.154,144.751 209.570 M178.475 209.605 C 178.896 209.773,180.420 209.768,181.031 209.597 C 181.286 209.525,180.741 209.468,179.818 209.470 C 178.896 209.471,178.292 209.532,178.475 209.605 M104.102 211.301 C 104.102 214.135,108.201 229.360,109.245 230.404 C 109.317 230.476,109.375 230.649,109.375 230.789 C 109.375 230.930,109.625 231.596,109.931 232.270 C 110.236 232.945,110.654 233.889,110.858 234.368 C 111.693 236.325,114.715 242.131,115.982 244.209 C 116.430 244.945,116.797 245.585,116.797 245.631 C 116.797 246.042,121.351 252.459,123.916 255.664 C 128.850 261.827,134.527 267.504,139.941 271.689 C 140.693 272.270,141.353 272.796,141.406 272.857 C 141.460 272.918,141.812 273.179,142.188 273.438 C 142.563 273.696,142.915 273.963,142.969 274.032 C 143.109 274.211,148.086 277.518,149.707 278.509 C 151.949 279.880,152.699 280.296,156.738 282.407 C 160.136 284.182,167.226 287.028,170.410 287.894 C 170.732 287.982,171.919 288.328,173.047 288.664 C 174.175 288.999,175.449 289.347,175.879 289.438 C 182.288 290.791,184.839 291.218,186.328 291.187 C 187.417 291.165,187.390 291.135,186.093 290.924 C 185.631 290.849,185.403 290.719,185.462 290.565 C 185.513 290.432,185.290 290.167,184.966 289.975 C 184.638 289.781,184.322 289.395,184.252 289.101 C 184.090 288.416,183.703 287.983,182.989 287.687 C 182.585 287.520,182.443 287.350,182.516 287.121 C 182.584 286.908,182.412 286.640,182.022 286.352 C 181.694 286.109,181.327 285.697,181.208 285.436 C 181.089 285.175,180.882 284.961,180.747 284.961 C 180.389 284.961,175.586 280.375,175.586 280.034 C 175.586 279.938,175.505 279.910,175.406 279.971 C 175.307 280.032,175.053 279.861,174.841 279.592 C 174.629 279.322,174.398 279.102,174.328 279.102 C 174.193 279.102,173.835 278.722,172.565 277.233 C 172.139 276.734,171.588 276.248,171.341 276.154 C 171.094 276.060,170.807 275.762,170.704 275.492 C 170.592 275.196,170.364 275.000,170.134 275.000 C 169.922 275.000,169.695 274.912,169.629 274.805 C 169.563 274.697,169.616 274.609,169.748 274.609 C 169.879 274.609,169.921 274.543,169.840 274.463 C 169.760 274.382,169.635 274.316,169.564 274.315 C 169.492 274.315,168.841 273.720,168.117 272.995 C 167.393 272.270,166.756 271.677,166.701 271.678 C 166.646 271.679,166.624 271.649,166.650 271.611 C 166.748 271.475,163.769 268.750,163.522 268.750 C 163.383 268.750,163.212 268.596,163.142 268.408 C 162.934 267.850,162.254 267.000,162.094 267.099 C 162.012 267.150,161.784 266.992,161.588 266.749 C 161.391 266.506,160.989 266.151,160.693 265.961 C 160.398 265.771,160.156 265.442,160.156 265.230 C 160.156 265.018,160.041 264.844,159.900 264.844 C 159.564 264.844,158.549 263.781,158.721 263.610 C 158.794 263.536,158.722 263.477,158.560 263.477 C 158.172 263.477,156.836 262.328,156.836 261.994 C 156.836 261.850,156.638 261.628,156.396 261.501 C 156.155 261.374,155.913 261.214,155.859 261.146 C 155.806 261.078,155.353 260.692,154.853 260.288 C 154.354 259.885,153.890 259.339,153.824 259.074 C 153.758 258.810,153.601 258.594,153.475 258.594 C 153.229 258.594,151.758 257.052,151.758 256.795 C 151.758 256.710,151.535 256.641,151.263 256.641 C 150.991 256.641,150.716 256.503,150.652 256.336 C 150.386 255.643,148.536 253.691,148.083 253.624 C 147.902 253.598,147.751 253.497,147.747 253.399 C 147.730 252.962,147.233 252.378,146.782 252.265 C 146.511 252.197,146.289 252.025,146.289 251.884 C 146.289 251.578,144.409 249.598,143.848 249.313 C 143.633 249.204,143.374 248.926,143.272 248.695 C 143.170 248.465,142.818 248.199,142.490 248.105 C 142.163 248.011,141.895 247.832,141.895 247.707 C 141.895 247.581,141.472 247.013,140.956 246.445 C 140.440 245.876,139.957 245.342,139.882 245.259 C 139.528 244.864,136.331 241.834,135.780 241.370 C 135.437 241.081,135.070 240.620,134.966 240.345 C 134.861 240.069,134.656 239.844,134.510 239.844 C 134.364 239.844,133.963 239.492,133.618 239.063 C 133.272 238.633,132.727 238.146,132.405 237.979 C 132.083 237.813,131.737 237.461,131.637 237.198 C 131.537 236.934,131.329 236.719,131.175 236.719 C 131.022 236.719,130.528 236.279,130.078 235.742 C 129.628 235.205,129.182 234.814,129.086 234.873 C 128.991 234.932,128.751 234.716,128.555 234.392 C 128.089 233.626,127.213 232.945,126.925 233.123 C 126.784 233.210,126.750 233.178,126.836 233.040 C 126.975 232.814,126.426 232.185,125.615 231.641 C 125.375 231.479,124.988 231.069,124.754 230.728 C 124.520 230.387,124.273 230.142,124.205 230.184 C 124.137 230.226,123.678 229.846,123.184 229.339 C 122.691 228.833,122.200 228.330,122.093 228.223 C 121.986 228.115,121.336 227.456,120.647 226.758 C 119.958 226.060,119.184 225.308,118.926 225.088 C 118.668 224.868,118.361 224.516,118.243 224.307 C 118.125 224.097,117.841 223.831,117.612 223.714 C 117.383 223.598,116.989 223.281,116.738 223.009 C 116.486 222.737,116.044 222.361,115.757 222.173 C 115.470 221.984,115.234 221.761,115.234 221.677 C 115.234 221.473,114.209 220.313,114.029 220.313 C 113.951 220.313,113.650 220.093,113.360 219.824 C 113.071 219.556,112.883 219.336,112.942 219.336 C 113.053 219.336,111.610 217.876,111.059 217.430 C 110.891 217.294,110.663 217.206,110.552 217.234 C 110.441 217.262,110.150 216.934,109.906 216.504 C 109.634 216.024,109.294 215.699,109.028 215.660 C 108.748 215.620,108.594 215.462,108.594 215.214 C 108.594 214.941,108.311 214.705,107.617 214.398 C 106.864 214.063,106.641 213.865,106.641 213.525 C 106.641 213.216,106.525 213.086,106.250 213.086 C 106.033 213.086,105.859 212.956,105.859 212.793 C 105.859 212.489,105.563 212.390,105.419 212.646 C 105.374 212.727,105.354 212.705,105.374 212.598 C 105.395 212.490,105.250 212.139,105.052 211.816 C 104.855 211.494,104.606 211.033,104.500 210.791 C 104.206 210.123,104.102 210.257,104.102 211.301 M134.375 211.389 C 134.375 211.613,135.008 213.104,135.074 213.038 C 135.159 212.953,134.682 211.570,134.509 211.397 C 134.435 211.323,134.375 211.320,134.375 211.389 M249.609 212.736 C 249.233 213.059,249.102 213.228,249.316 213.111 C 249.907 212.788,250.470 212.319,250.376 212.228 C 250.330 212.184,249.985 212.412,249.609 212.736 M266.211 212.205 C 266.211 212.339,267.407 212.932,267.496 212.842 C 267.539 212.800,267.267 212.619,266.892 212.441 C 266.517 212.262,266.211 212.156,266.211 212.205 M147.752 212.692 C 147.892 212.918,149.840 214.261,150.586 214.645 C 151.316 215.021,151.046 214.808,149.253 213.593 C 148.359 212.987,147.683 212.581,147.752 212.692 M246.922 214.420 C 245.927 215.009,245.148 215.526,245.191 215.569 C 245.235 215.612,246.048 215.187,247.000 214.623 C 249.005 213.437,248.917 213.495,248.812 213.413 C 248.767 213.377,247.917 213.830,246.922 214.420 M269.141 213.466 C 269.302 213.576,269.690 213.667,270.003 213.669 C 270.754 213.673,270.598 213.560,269.629 213.398 C 269.069 213.304,268.931 213.323,269.141 213.466 M273.926 213.477 L 273.340 213.626 273.926 213.646 C 274.248 213.657,274.644 213.581,274.805 213.477 C 275.168 213.242,274.847 213.242,273.926 213.477 M271.633 213.810 C 271.876 213.857,272.228 213.855,272.414 213.806 C 272.601 213.757,272.402 213.719,271.973 213.721 C 271.543 213.723,271.390 213.763,271.633 213.810 M151.563 215.218 C 152.033 215.602,152.344 215.727,152.344 215.532 C 152.344 215.481,152.058 215.300,151.709 215.130 L 151.074 214.820 151.563 215.218 M242.383 216.797 C 242.007 217.003,241.754 217.175,241.822 217.179 C 242.024 217.193,243.359 216.604,243.359 216.501 C 243.359 216.331,243.079 216.416,242.383 216.797 M261.469 217.480 C 261.179 218.071,260.983 218.555,261.034 218.555 C 261.085 218.555,261.353 218.107,261.631 217.559 C 262.029 216.772,262.215 216.584,262.513 216.662 C 262.721 216.716,262.842 216.681,262.782 216.583 C 262.489 216.109,261.966 216.466,261.469 217.480 M155.664 217.283 C 155.664 217.385,156.999 217.974,157.202 217.961 C 157.358 217.950,156.006 217.207,155.811 217.196 C 155.730 217.191,155.664 217.230,155.664 217.283 M157.422 218.064 C 157.422 218.188,158.772 218.751,159.057 218.746 C 159.178 218.743,158.894 218.568,158.426 218.355 C 157.518 217.943,157.422 217.915,157.422 218.064 M238.770 218.370 C 238.340 218.573,238.087 218.742,238.209 218.745 C 238.492 218.751,239.844 218.189,239.844 218.064 C 239.844 217.909,239.595 217.979,238.770 218.370 M137.786 218.896 C 137.957 219.246,138.138 219.531,138.189 219.531 C 138.383 219.531,138.258 219.220,137.875 218.750 L 137.476 218.262 137.786 218.896 M266.309 218.555 C 266.893 218.806,267.380 218.806,266.992 218.555 C 266.831 218.451,266.523 218.370,266.309 218.376 L 265.918 218.387 266.309 218.555 M126.571 218.896 C 126.582 219.092,127.325 220.444,127.336 220.288 C 127.349 220.085,126.760 218.750,126.658 218.750 C 126.605 218.750,126.566 218.816,126.571 218.896 M267.773 218.945 C 268.042 219.031,268.438 219.104,268.652 219.107 L 269.043 219.113 268.652 218.945 C 268.438 218.853,268.042 218.780,267.773 218.783 L 267.285 218.789 267.773 218.945 M269.157 219.213 C 269.202 219.253,269.678 219.345,270.215 219.417 C 270.908 219.509,271.106 219.489,270.898 219.347 C 270.635 219.167,268.961 219.038,269.157 219.213 M258.535 222.314 C 257.503 223.845,256.469 225.361,256.238 225.684 C 255.906 226.147,255.945 226.127,256.425 225.586 C 257.196 224.716,260.679 219.531,260.491 219.531 C 260.448 219.531,259.568 220.784,258.535 222.314 M139.077 220.996 C 139.318 221.426,139.600 221.865,139.702 221.973 C 139.994 222.279,139.326 221.042,138.963 220.605 C 138.784 220.391,138.836 220.566,139.077 220.996 M166.211 221.289 C 166.372 221.393,166.636 221.478,166.797 221.478 C 167.057 221.478,167.057 221.457,166.797 221.289 C 166.636 221.185,166.372 221.100,166.211 221.100 C 165.951 221.100,165.951 221.121,166.211 221.289 M128.441 222.705 C 129.849 225.510,132.715 230.170,134.416 232.422 C 141.192 241.393,149.720 249.322,157.520 253.901 C 158.914 254.720,157.967 253.995,155.481 252.341 C 148.678 247.815,141.845 241.512,136.719 235.035 C 133.475 230.937,130.439 226.288,128.538 222.510 C 128.200 221.838,127.880 221.289,127.827 221.289 C 127.773 221.289,128.049 221.926,128.441 222.705 M167.578 221.680 C 167.739 221.784,168.047 221.864,168.262 221.858 L 168.652 221.848 168.262 221.680 C 167.678 221.429,167.190 221.429,167.578 221.680 M228.613 221.680 L 228.223 221.848 228.613 221.858 C 228.828 221.864,229.136 221.784,229.297 221.680 C 229.685 221.429,229.197 221.429,228.613 221.680 M169.043 222.070 C 169.258 222.163,169.565 222.238,169.727 222.238 C 169.911 222.238,169.875 222.176,169.629 222.070 C 169.414 221.978,169.106 221.902,168.945 221.902 C 168.761 221.902,168.797 221.965,169.043 222.070 M227.148 222.070 C 226.756 222.196,226.737 222.228,227.051 222.232 C 227.266 222.236,227.617 222.163,227.832 222.070 C 228.330 221.856,227.816 221.856,227.148 222.070 M170.605 222.461 C 170.820 222.553,171.172 222.626,171.387 222.623 C 171.701 222.618,171.682 222.587,171.289 222.461 C 170.621 222.247,170.108 222.247,170.605 222.461 M225.586 222.461 C 225.193 222.587,225.174 222.618,225.488 222.623 C 225.703 222.626,226.055 222.553,226.270 222.461 C 226.767 222.247,226.254 222.247,225.586 222.461 M172.363 222.852 C 172.578 222.944,172.930 223.017,173.145 223.014 C 173.459 223.009,173.439 222.977,173.047 222.852 C 172.379 222.638,171.866 222.638,172.363 222.852 M223.828 222.852 C 223.436 222.977,223.416 223.009,223.730 223.014 C 223.945 223.017,224.297 222.944,224.512 222.852 C 225.009 222.638,224.496 222.638,223.828 222.852 M174.121 223.242 C 174.336 223.335,174.731 223.407,175.000 223.404 L 175.488 223.399 175.000 223.242 C 174.731 223.156,174.336 223.083,174.121 223.080 L 173.730 223.074 174.121 223.242 M221.875 223.242 C 221.482 223.368,221.463 223.400,221.777 223.404 C 221.992 223.407,222.344 223.335,222.559 223.242 C 223.056 223.028,222.543 223.028,221.875 223.242 M176.172 223.633 C 176.440 223.719,176.880 223.788,177.148 223.786 C 177.587 223.782,177.577 223.767,177.051 223.633 C 176.225 223.423,175.515 223.423,176.172 223.633 M219.629 223.633 C 219.103 223.767,219.093 223.782,219.531 223.786 C 219.800 223.788,220.239 223.719,220.508 223.633 C 221.164 223.423,220.455 223.423,219.629 223.633 M178.516 224.023 C 178.784 224.109,179.268 224.178,179.590 224.176 L 180.176 224.173 179.590 224.023 C 179.268 223.941,178.784 223.873,178.516 223.871 L 178.027 223.867 178.516 224.023 M216.992 224.023 L 216.309 224.167 216.992 224.174 C 217.368 224.177,217.896 224.109,218.164 224.023 L 218.652 223.867 218.164 223.873 C 217.896 223.877,217.368 223.944,216.992 224.023 M181.543 224.414 C 181.865 224.496,182.437 224.563,182.813 224.564 L 183.496 224.564 182.715 224.403 C 181.663 224.185,180.681 224.195,181.543 224.414 M213.770 224.414 L 212.988 224.554 213.770 224.559 C 214.199 224.561,214.814 224.496,215.137 224.414 L 215.723 224.265 215.137 224.270 C 214.814 224.272,214.199 224.337,213.770 224.414 M142.115 225.635 C 143.302 227.274,144.898 229.259,145.160 229.421 C 145.293 229.503,144.872 228.915,144.225 228.115 C 143.579 227.315,142.716 226.199,142.309 225.635 C 141.902 225.071,141.524 224.609,141.471 224.609 C 141.417 224.609,141.707 225.071,142.115 225.635 M185.352 224.805 C 186.235 224.972,188.417 225.063,188.265 224.927 C 188.220 224.887,187.349 224.806,186.328 224.747 C 185.028 224.672,184.736 224.689,185.352 224.805 M209.668 224.805 L 208.496 224.934 209.570 224.953 C 210.161 224.963,211.040 224.901,211.523 224.815 L 212.402 224.658 211.621 224.667 C 211.191 224.671,210.313 224.733,209.668 224.805 M191.016 225.219 C 192.948 225.378,203.109 225.381,205.469 225.222 C 206.489 225.154,203.325 225.098,198.438 225.098 C 193.550 225.098,190.210 225.152,191.016 225.219 M254.571 227.783 C 253.946 228.562,253.571 229.089,253.739 228.955 C 254.097 228.668,255.927 226.367,255.797 226.367 C 255.748 226.367,255.196 227.004,254.571 227.783 M252.539 230.225 C 251.550 231.552,245.923 237.217,244.343 238.477 C 243.602 239.067,242.990 239.623,242.982 239.711 C 242.975 239.799,243.744 239.209,244.691 238.399 C 247.469 236.023,253.912 229.284,253.387 229.303 C 253.297 229.306,252.915 229.721,252.539 230.225 M145.508 229.836 C 145.508 229.934,145.969 230.496,146.533 231.085 C 147.097 231.674,147.333 231.886,147.057 231.556 C 146.781 231.227,146.319 230.665,146.031 230.307 C 145.743 229.950,145.508 229.738,145.508 229.836 M147.852 232.599 C 147.852 232.666,149.038 233.904,150.488 235.352 C 151.938 236.799,153.125 237.926,153.125 237.857 C 153.125 237.787,151.938 236.549,150.488 235.105 C 149.038 233.660,147.852 232.533,147.852 232.599 M153.320 237.957 C 153.320 238.013,154.089 238.704,155.029 239.491 C 156.845 241.012,157.910 241.811,156.934 240.920 C 155.574 239.679,153.320 237.831,153.320 237.957 M241.797 240.555 C 241.313 240.943,240.325 241.697,239.600 242.229 C 238.875 242.760,238.281 243.240,238.281 243.294 C 238.281 243.407,239.767 242.344,241.553 240.954 C 242.613 240.128,242.920 239.838,242.725 239.846 C 242.698 239.847,242.280 240.166,241.797 240.555 M157.695 241.569 C 157.770 241.692,158.237 242.070,158.732 242.410 C 159.226 242.751,159.569 242.929,159.493 242.806 C 159.417 242.683,158.950 242.305,158.456 241.965 C 157.961 241.624,157.619 241.446,157.695 241.569 M159.766 243.058 C 159.766 243.108,160.271 243.489,160.889 243.904 C 162.257 244.823,162.500 244.968,162.500 244.864 C 162.500 244.820,161.885 244.375,161.133 243.875 C 160.381 243.375,159.766 243.007,159.766 243.058 M236.377 244.379 C 236.135 244.496,235.938 244.667,235.938 244.761 C 235.938 244.854,236.157 244.787,236.426 244.611 C 237.142 244.142,237.117 244.022,236.377 244.379 M162.793 245.064 C 162.900 245.166,163.340 245.447,163.770 245.689 C 164.199 245.930,164.375 245.981,164.160 245.803 C 163.724 245.440,162.486 244.771,162.793 245.064 M234.805 245.396 C 233.848 246.073,233.782 246.223,234.668 245.706 C 235.585 245.171,235.901 244.918,235.635 244.931 C 235.533 244.937,235.159 245.146,234.805 245.396 M164.648 246.181 C 164.648 246.235,164.912 246.415,165.234 246.582 C 165.557 246.749,165.820 246.841,165.820 246.787 C 165.820 246.734,165.557 246.553,165.234 246.387 C 164.912 246.220,164.648 246.128,164.648 246.181 M232.769 246.563 C 231.634 247.237,231.632 247.366,232.764 246.798 C 233.328 246.514,233.789 246.240,233.789 246.188 C 233.789 246.020,233.510 246.122,232.769 246.563 M166.016 246.955 C 166.016 247.017,166.994 247.558,168.190 248.158 C 170.296 249.213,171.489 249.745,171.274 249.530 C 171.197 249.452,167.462 247.540,166.162 246.913 C 166.082 246.874,166.016 246.893,166.016 246.955 M230.117 247.947 C 229.441 248.299,228.827 248.647,228.754 248.720 C 228.438 249.036,230.669 248.001,231.445 247.471 C 232.041 247.065,231.311 247.327,230.117 247.947 M224.756 250.345 C 223.816 250.728,223.081 251.075,223.121 251.116 C 223.206 251.200,226.758 249.804,226.758 249.687 C 226.758 249.549,226.490 249.636,224.756 250.345 M172.852 250.276 C 173.120 250.420,173.560 250.592,173.828 250.659 C 174.097 250.726,173.965 250.611,173.535 250.405 C 172.651 249.980,172.103 249.877,172.852 250.276 M175.879 251.457 C 176.861 251.880,177.494 251.978,176.660 251.577 C 176.230 251.370,175.747 251.201,175.586 251.202 C 175.425 251.203,175.557 251.318,175.879 251.457 M220.351 251.902 C 219.888 252.062,219.553 252.235,219.606 252.288 C 219.709 252.391,221.680 251.780,221.680 251.644 C 221.680 251.510,221.241 251.595,220.351 251.902 M177.832 252.148 C 178.416 252.399,178.904 252.399,178.516 252.148 C 178.354 252.044,178.047 251.964,177.832 251.970 L 177.441 251.981 177.832 252.148 M180.469 252.930 C 181.137 253.144,181.650 253.144,181.152 252.930 C 180.938 252.837,180.586 252.764,180.371 252.768 C 180.057 252.772,180.076 252.804,180.469 252.930 M216.992 252.930 C 216.604 253.181,217.092 253.181,217.676 252.930 L 218.066 252.762 217.676 252.751 C 217.461 252.745,217.153 252.826,216.992 252.930 M181.657 253.195 C 181.702 253.234,182.002 253.324,182.324 253.396 C 182.752 253.492,182.831 253.474,182.617 253.329 C 182.353 253.151,181.461 253.026,181.657 253.195 M215.527 253.320 C 215.030 253.534,215.543 253.534,216.211 253.320 C 216.603 253.195,216.623 253.163,216.309 253.158 C 216.094 253.155,215.742 253.228,215.527 253.320 M183.594 253.711 C 184.262 253.925,184.775 253.925,184.277 253.711 C 184.063 253.619,183.711 253.546,183.496 253.549 C 183.182 253.553,183.201 253.585,183.594 253.711 M213.770 253.720 C 213.497 253.843,213.616 253.861,214.160 253.778 C 214.590 253.713,214.978 253.627,215.023 253.587 C 215.191 253.439,214.144 253.550,213.770 253.720 M185.449 254.102 C 185.771 254.184,186.211 254.255,186.426 254.260 L 186.816 254.269 186.426 254.102 C 186.211 254.009,185.771 253.938,185.449 253.943 L 184.863 253.952 185.449 254.102 M211.816 254.102 L 211.426 254.269 211.816 254.260 C 212.031 254.255,212.471 254.184,212.793 254.102 L 213.379 253.952 212.793 253.943 C 212.471 253.938,212.031 254.009,211.816 254.102 M158.691 254.588 C 159.279 255.064,163.693 257.466,163.795 257.364 C 163.843 257.316,163.457 257.053,162.936 256.781 C 162.415 256.508,161.643 256.089,161.219 255.848 C 159.545 254.898,158.321 254.287,158.691 254.588 M186.930 254.370 C 186.975 254.410,187.539 254.492,188.184 254.552 C 188.954 254.624,189.155 254.607,188.770 254.502 C 188.167 254.339,186.785 254.239,186.930 254.370 M209.570 254.502 C 209.241 254.614,209.400 254.631,210.059 254.555 C 210.596 254.493,211.072 254.409,211.117 254.370 C 211.270 254.232,210.058 254.336,209.570 254.502 M190.430 254.893 C 190.913 254.979,191.616 255.045,191.992 255.039 C 192.625 255.030,192.611 255.018,191.797 254.873 C 191.313 254.787,190.610 254.721,190.234 254.726 C 189.601 254.736,189.616 254.748,190.430 254.893 M206.348 254.883 C 205.212 255.086,206.416 255.094,207.715 254.892 C 208.642 254.747,208.652 254.740,207.910 254.741 C 207.480 254.742,206.777 254.806,206.348 254.883 M194.824 255.298 C 195.576 255.365,197.554 255.420,199.219 255.420 C 200.884 255.420,202.861 255.365,203.613 255.298 C 204.365 255.231,202.388 255.176,199.219 255.176 C 196.050 255.176,194.072 255.231,194.824 255.298 M165.430 258.203 C 165.806 258.409,166.201 258.577,166.309 258.577 C 166.416 258.577,166.196 258.409,165.820 258.203 C 165.444 257.997,165.049 257.829,164.941 257.829 C 164.834 257.829,165.054 257.997,165.430 258.203 M177.637 262.695 C 177.852 262.788,178.159 262.863,178.320 262.863 C 178.505 262.863,178.469 262.801,178.223 262.695 C 178.008 262.603,177.700 262.527,177.539 262.527 C 177.354 262.527,177.391 262.590,177.637 262.695 M184.473 264.258 C 184.688 264.350,184.995 264.426,185.156 264.426 C 185.341 264.426,185.305 264.364,185.059 264.258 C 184.844 264.165,184.536 264.090,184.375 264.090 C 184.190 264.090,184.226 264.152,184.473 264.258 M193.703 265.373 C 193.946 265.419,194.298 265.417,194.485 265.369 C 194.671 265.320,194.473 265.281,194.043 265.284 C 193.613 265.286,193.460 265.326,193.703 265.373 M202.688 265.373 C 202.931 265.419,203.282 265.417,203.469 265.369 C 203.656 265.320,203.457 265.281,203.027 265.284 C 202.598 265.286,202.445 265.326,202.688 265.373 M197.412 265.574 C 197.976 265.613,198.899 265.613,199.463 265.574 C 200.027 265.534,199.565 265.502,198.438 265.502 C 197.310 265.502,196.848 265.534,197.412 265.574 M399.707 396.875 C 399.773 396.982,399.749 397.070,399.653 397.070 C 399.558 397.070,399.479 397.214,399.479 397.389 C 399.479 397.665,399.514 397.660,399.740 397.352 C 400.053 396.923,400.073 396.680,399.793 396.680 C 399.679 396.680,399.641 396.768,399.707 396.875 " stroke="none" fill="#65508a" fill-rule="evenodd"></path><path id="path4" d="M195.850 117.329 C 196.199 117.372,196.770 117.372,197.119 117.329 C 197.468 117.285,197.183 117.250,196.484 117.250 C 195.786 117.250,195.500 117.285,195.850 117.329 M201.416 117.327 C 201.711 117.372,202.195 117.372,202.490 117.327 C 202.786 117.283,202.544 117.246,201.953 117.246 C 201.362 117.246,201.121 117.283,201.416 117.327 M193.213 117.517 C 193.401 117.567,193.708 117.567,193.896 117.517 C 194.084 117.468,193.931 117.428,193.555 117.428 C 193.179 117.428,193.025 117.468,193.213 117.517 M197.217 127.489 C 198.103 127.525,199.553 127.525,200.439 127.489 C 201.326 127.453,200.601 127.423,198.828 127.423 C 197.056 127.423,196.331 127.453,197.217 127.489 M193.604 127.674 C 193.792 127.723,194.099 127.723,194.287 127.674 C 194.475 127.625,194.321 127.584,193.945 127.584 C 193.569 127.584,193.416 127.625,193.604 127.674 M156.140 130.196 C 155.395 130.690,154.653 131.229,154.492 131.393 C 154.225 131.664,157.079 129.835,157.510 129.459 C 157.974 129.053,157.380 129.373,156.140 130.196 M152.727 132.631 L 152.051 133.231 152.783 132.706 C 153.430 132.241,153.641 132.031,153.459 132.031 C 153.429 132.031,153.099 132.301,152.727 132.631 M148.629 135.904 C 138.339 144.712,130.583 156.104,125.935 169.238 C 125.403 170.742,124.841 172.445,124.687 173.023 C 124.532 173.601,124.347 174.169,124.275 174.286 C 124.203 174.402,124.078 174.852,123.997 175.286 C 123.916 175.719,123.751 176.470,123.631 176.953 C 123.511 177.437,123.333 178.228,123.236 178.711 C 122.803 180.865,122.664 181.587,122.559 182.227 C 122.023 185.503,121.725 186.729,121.411 186.946 C 121.308 187.017,121.224 187.613,121.224 188.269 C 121.224 189.428,120.881 189.873,120.738 188.901 C 120.704 188.667,120.589 188.477,120.483 188.477 C 120.376 188.477,120.352 188.376,120.428 188.253 C 120.624 187.936,119.528 188.226,119.111 188.602 C 118.707 188.967,118.407 188.597,118.761 188.171 C 118.957 187.934,118.946 187.903,118.700 187.997 C 118.534 188.061,118.341 188.019,118.270 187.904 C 118.199 187.789,117.942 187.695,117.698 187.695 C 117.455 187.695,117.047 187.473,116.792 187.202 C 116.387 186.771,116.307 186.749,116.154 187.024 C 115.997 187.303,115.936 187.293,115.598 186.931 C 115.390 186.707,115.145 186.523,115.054 186.523 C 114.964 186.523,114.841 186.339,114.782 186.113 C 114.723 185.887,114.581 185.761,114.466 185.832 C 114.344 185.908,114.258 185.790,114.258 185.547 C 114.258 185.284,114.340 185.184,114.483 185.273 C 114.624 185.360,114.656 185.326,114.567 185.183 C 114.490 185.057,114.344 185.005,114.244 185.067 C 114.144 185.129,113.983 184.973,113.887 184.720 C 113.791 184.468,113.352 184.011,112.911 183.705 C 112.470 183.400,112.109 183.030,112.109 182.884 C 112.109 182.737,111.978 182.617,111.816 182.617 C 111.655 182.617,111.523 182.529,111.523 182.422 C 111.523 182.314,111.626 182.227,111.751 182.227 C 111.877 182.227,111.929 182.177,111.868 182.115 C 111.807 182.054,111.570 182.120,111.341 182.262 C 110.990 182.479,110.897 182.474,110.739 182.227 C 110.637 182.065,110.552 182.001,110.550 182.084 C 110.546 182.274,108.934 181.466,108.753 181.184 C 108.680 181.070,108.659 180.912,108.707 180.833 C 108.756 180.755,108.581 180.460,108.320 180.178 C 107.877 179.700,107.831 179.689,107.639 180.018 C 107.496 180.264,107.432 180.287,107.428 180.094 C 107.425 179.942,107.366 179.873,107.299 179.941 C 107.017 180.223,106.407 179.650,106.496 179.186 C 106.594 178.672,105.848 178.013,105.375 178.194 C 105.224 178.252,105.069 178.115,105.002 177.867 C 104.823 177.198,104.864 176.563,105.086 176.563 C 105.201 176.563,105.271 176.205,105.246 175.732 C 105.195 174.746,105.850 171.228,106.459 169.224 C 106.662 168.554,106.702 167.842,106.526 168.018 C 106.463 168.081,106.331 168.448,106.233 168.832 C 106.135 169.217,105.961 169.861,105.846 170.264 C 105.401 171.831,104.692 174.935,104.273 177.148 C 103.652 180.440,103.438 181.835,103.121 184.668 C 102.279 192.201,102.279 198.583,103.121 206.543 C 103.493 210.069,104.336 215.143,104.591 215.399 C 104.750 215.557,104.703 215.157,104.383 213.610 C 104.014 211.823,104.058 209.950,104.451 210.742 C 104.584 211.011,104.855 211.494,105.052 211.816 C 105.250 212.139,105.395 212.490,105.374 212.598 C 105.354 212.705,105.374 212.727,105.419 212.646 C 105.563 212.390,105.859 212.489,105.859 212.793 C 105.859 212.956,106.033 213.086,106.250 213.086 C 106.525 213.086,106.641 213.216,106.641 213.525 C 106.641 213.865,106.864 214.063,107.617 214.398 C 108.311 214.705,108.594 214.941,108.594 215.214 C 108.594 215.462,108.748 215.620,109.028 215.660 C 109.294 215.699,109.634 216.024,109.906 216.504 C 110.150 216.934,110.441 217.262,110.552 217.234 C 110.663 217.206,110.891 217.294,111.059 217.430 C 111.610 217.876,113.053 219.336,112.942 219.336 C 112.883 219.336,113.071 219.556,113.360 219.824 C 113.650 220.093,113.951 220.313,114.029 220.313 C 114.209 220.313,115.234 221.473,115.234 221.677 C 115.234 221.761,115.470 221.984,115.757 222.173 C 116.044 222.361,116.486 222.737,116.738 223.009 C 116.989 223.281,117.383 223.598,117.612 223.714 C 117.841 223.831,118.125 224.097,118.243 224.307 C 118.361 224.516,118.668 224.868,118.926 225.088 C 119.184 225.308,119.958 226.060,120.647 226.758 C 121.336 227.456,121.986 228.115,122.093 228.223 C 122.200 228.330,122.691 228.833,123.184 229.339 C 123.678 229.846,124.137 230.226,124.205 230.184 C 124.273 230.142,124.520 230.387,124.754 230.728 C 124.988 231.069,125.375 231.479,125.615 231.641 C 126.426 232.185,126.975 232.814,126.836 233.040 C 126.750 233.178,126.784 233.210,126.925 233.123 C 127.213 232.945,128.089 233.626,128.555 234.392 C 128.751 234.716,128.991 234.932,129.086 234.873 C 129.182 234.814,129.628 235.205,130.078 235.742 C 130.528 236.279,131.022 236.719,131.175 236.719 C 131.329 236.719,131.537 236.934,131.637 237.198 C 131.737 237.461,132.083 237.813,132.405 237.979 C 132.727 238.146,133.272 238.633,133.618 239.063 C 133.963 239.492,134.364 239.844,134.510 239.844 C 134.656 239.844,134.861 240.069,134.966 240.345 C 135.070 240.620,135.437 241.081,135.780 241.370 C 136.331 241.834,139.528 244.864,139.882 245.259 C 139.957 245.342,140.440 245.876,140.956 246.445 C 141.472 247.013,141.895 247.581,141.895 247.707 C 141.895 247.832,142.163 248.011,142.490 248.105 C 142.818 248.199,143.170 248.465,143.272 248.695 C 143.374 248.926,143.633 249.204,143.848 249.313 C 144.409 249.598,146.289 251.578,146.289 251.884 C 146.289 252.025,146.511 252.197,146.782 252.265 C 147.233 252.378,147.730 252.962,147.747 253.399 C 147.751 253.497,147.902 253.598,148.083 253.624 C 148.536 253.691,150.386 255.643,150.652 256.336 C 150.716 256.503,150.991 256.641,151.263 256.641 C 151.535 256.641,151.758 256.710,151.758 256.795 C 151.758 257.052,153.229 258.594,153.475 258.594 C 153.601 258.594,153.758 258.810,153.824 259.074 C 153.890 259.339,154.354 259.885,154.853 260.288 C 155.353 260.692,155.806 261.078,155.859 261.146 C 155.913 261.214,156.155 261.374,156.396 261.501 C 156.638 261.628,156.836 261.850,156.836 261.994 C 156.836 262.328,158.172 263.477,158.560 263.477 C 158.722 263.477,158.794 263.536,158.721 263.610 C 158.549 263.781,159.564 264.844,159.900 264.844 C 160.041 264.844,160.156 265.018,160.156 265.230 C 160.156 265.442,160.398 265.771,160.693 265.961 C 160.989 266.151,161.391 266.506,161.588 266.749 C 161.784 266.992,162.012 267.150,162.094 267.099 C 162.254 267.000,162.934 267.850,163.142 268.408 C 163.212 268.596,163.383 268.750,163.522 268.750 C 163.771 268.750,166.504 271.247,166.569 271.533 C 166.587 271.614,166.625 271.658,166.654 271.631 C 166.683 271.604,167.320 272.197,168.070 272.948 C 168.820 273.699,169.492 274.315,169.564 274.315 C 169.635 274.316,169.760 274.382,169.840 274.463 C 169.921 274.543,169.879 274.609,169.748 274.609 C 169.616 274.609,169.563 274.697,169.629 274.805 C 169.695 274.912,169.922 275.000,170.134 275.000 C 170.364 275.000,170.592 275.196,170.704 275.492 C 170.807 275.762,171.094 276.060,171.341 276.154 C 171.588 276.248,172.139 276.734,172.565 277.233 C 173.835 278.722,174.193 279.102,174.328 279.102 C 174.398 279.102,174.629 279.322,174.841 279.592 C 175.053 279.861,175.307 280.032,175.406 279.971 C 175.505 279.910,175.586 279.938,175.586 280.034 C 175.586 280.375,180.389 284.961,180.747 284.961 C 180.882 284.961,181.089 285.175,181.208 285.436 C 181.327 285.697,181.694 286.109,182.022 286.352 C 182.412 286.640,182.584 286.908,182.516 287.121 C 182.443 287.350,182.585 287.520,182.989 287.687 C 183.703 287.983,184.090 288.416,184.252 289.101 C 184.322 289.395,184.638 289.781,184.966 289.975 C 185.290 290.167,185.513 290.432,185.462 290.565 C 185.403 290.719,185.631 290.849,186.093 290.924 C 187.511 291.155,187.376 291.198,185.449 291.128 C 183.254 291.049,183.658 291.257,186.328 291.582 C 187.241 291.693,188.735 291.877,189.648 291.991 C 193.947 292.528,204.693 292.429,211.035 291.794 C 213.853 291.512,217.618 290.908,220.801 290.228 C 221.601 290.058,223.004 289.737,224.219 289.447 C 224.595 289.357,225.254 289.184,225.684 289.063 C 226.113 288.941,226.772 288.771,227.148 288.685 C 227.524 288.599,228.228 288.386,228.711 288.212 C 229.194 288.039,229.761 287.895,229.971 287.893 C 230.205 287.892,230.280 287.822,230.166 287.713 C 229.953 287.508,228.015 287.774,227.667 288.056 C 227.283 288.368,223.778 288.423,223.676 288.119 C 223.642 288.016,223.439 287.978,223.225 288.034 C 222.662 288.181,222.888 288.574,223.536 288.574 C 223.839 288.574,224.128 288.697,224.179 288.848 C 224.251 289.062,224.131 289.094,223.635 288.994 C 223.284 288.924,222.709 288.867,222.356 288.867 C 221.687 288.867,221.519 288.427,222.060 288.092 C 222.219 287.994,222.253 287.834,222.150 287.668 C 222.059 287.522,222.009 287.212,222.039 286.980 C 222.096 286.544,221.981 286.477,220.744 286.228 C 220.241 286.126,220.126 286.023,220.213 285.748 C 220.282 285.531,220.206 285.352,220.013 285.278 C 219.842 285.213,219.754 285.075,219.817 284.972 C 219.881 284.869,219.748 284.686,219.522 284.565 C 219.285 284.439,219.156 284.227,219.217 284.067 C 219.276 283.914,219.239 283.789,219.134 283.789 C 219.030 283.789,218.945 283.655,218.945 283.492 C 218.945 283.328,218.726 283.095,218.457 282.972 C 218.188 282.850,217.969 282.663,217.969 282.557 C 217.969 282.261,216.603 281.001,216.595 281.289 C 216.591 281.429,216.481 281.358,216.351 281.132 C 216.220 280.906,216.003 280.760,215.869 280.807 C 215.735 280.854,215.625 280.753,215.625 280.583 C 215.625 280.413,215.533 280.273,215.420 280.273 C 215.307 280.273,215.129 280.029,215.025 279.730 C 214.903 279.382,214.512 279.013,213.938 278.704 C 212.958 278.179,211.644 276.648,211.807 276.222 C 211.864 276.076,211.839 276.000,211.752 276.054 C 211.665 276.107,211.353 275.927,211.059 275.654 C 210.764 275.381,210.418 275.140,210.291 275.118 C 209.742 275.025,209.156 274.563,209.256 274.301 C 209.315 274.148,209.248 274.023,209.106 274.023 C 208.965 274.023,208.688 273.845,208.490 273.626 C 208.292 273.407,208.018 273.272,207.880 273.324 C 207.742 273.377,207.578 273.336,207.514 273.234 C 207.451 273.131,207.489 273.047,207.600 273.047 C 207.710 273.047,207.752 272.921,207.693 272.766 C 207.633 272.612,207.473 272.528,207.337 272.581 C 207.022 272.702,206.380 271.741,206.524 271.365 C 206.637 271.071,206.214 270.827,205.225 270.615 C 204.929 270.552,204.685 270.392,204.681 270.260 C 204.669 269.766,204.136 269.338,203.420 269.246 C 203.013 269.194,202.670 269.127,202.658 269.097 C 202.647 269.067,202.480 268.745,202.289 268.382 C 202.097 268.018,201.966 267.710,201.996 267.698 C 202.478 267.502,202.833 267.179,202.835 266.935 C 202.839 266.426,203.114 266.342,205.138 266.230 C 205.333 266.220,205.448 266.140,205.394 266.053 C 205.265 265.844,207.138 265.474,209.082 265.324 C 209.941 265.258,211.084 265.085,211.621 264.939 C 212.158 264.794,213.169 264.614,213.867 264.540 C 214.565 264.465,215.356 264.319,215.625 264.213 C 215.894 264.108,216.816 263.864,217.676 263.671 C 220.212 263.101,220.880 262.913,223.242 262.110 C 226.983 260.837,228.178 260.408,229.199 259.970 C 229.736 259.740,230.439 259.446,230.762 259.317 C 231.865 258.875,239.355 255.051,239.664 254.771 C 239.833 254.618,240.037 254.492,240.116 254.492 C 240.348 254.492,245.073 251.323,246.854 249.973 C 247.755 249.290,248.722 248.558,249.002 248.348 C 250.459 247.253,253.717 244.259,256.055 241.865 L 258.691 239.166 255.664 242.101 C 252.179 245.481,250.895 246.612,248.047 248.809 C 246.919 249.679,245.907 250.463,245.798 250.551 C 245.397 250.874,241.416 253.516,241.331 253.516 C 241.282 253.516,240.554 253.942,239.713 254.463 C 237.081 256.093,231.149 258.940,227.930 260.116 C 227.339 260.332,226.461 260.657,225.979 260.838 C 224.111 261.539,220.464 262.655,218.701 263.065 C 216.449 263.589,216.028 263.682,214.551 263.981 C 211.242 264.650,206.774 265.179,202.272 265.435 C 196.523 265.762,190.217 265.339,184.375 264.234 C 164.129 260.405,147.604 249.882,134.416 232.422 C 130.129 226.747,125.812 218.143,124.027 211.719 C 123.893 211.235,123.715 210.620,123.631 210.352 C 123.548 210.083,123.375 209.336,123.247 208.691 C 123.120 208.047,122.942 207.168,122.852 206.738 C 121.431 199.930,121.700 186.798,123.413 179.395 C 123.512 178.965,123.688 178.174,123.804 177.637 C 123.991 176.766,124.546 174.576,124.992 172.949 C 128.683 159.488,137.866 145.227,148.828 135.931 C 150.739 134.310,151.097 133.984,150.966 133.984 C 150.914 133.984,149.863 134.848,148.629 135.904 M249.797 136.572 C 250.606 137.435,250.781 137.590,250.781 137.443 C 250.781 137.412,250.364 136.994,249.854 136.515 L 248.926 135.645 249.797 136.572 M254.883 141.699 C 255.247 142.075,255.589 142.383,255.643 142.383 C 255.697 142.383,255.443 142.075,255.078 141.699 C 254.714 141.323,254.372 141.016,254.318 141.016 C 254.264 141.016,254.518 141.323,254.883 141.699 M154.578 144.385 L 154.004 145.020 154.639 144.446 C 155.230 143.911,155.363 143.750,155.212 143.750 C 155.179 143.750,154.893 144.036,154.578 144.385 M243.945 145.215 C 244.310 145.591,244.652 145.898,244.706 145.898 C 244.759 145.898,244.505 145.591,244.141 145.215 C 243.776 144.839,243.434 144.531,243.380 144.531 C 243.327 144.531,243.581 144.839,243.945 145.215 M152.143 146.631 L 150.879 147.949 152.197 146.685 C 152.922 145.990,153.516 145.397,153.516 145.367 C 153.516 145.223,153.317 145.406,152.143 146.631 M246.680 147.913 C 246.680 147.946,246.965 148.232,247.314 148.547 L 247.949 149.121 247.376 148.486 C 246.841 147.895,246.680 147.762,246.680 147.913 M161.023 151.025 L 160.449 151.660 161.084 151.087 C 161.433 150.771,161.719 150.485,161.719 150.452 C 161.719 150.301,161.558 150.434,161.023 151.025 M156.726 155.322 L 156.152 155.957 156.787 155.383 C 157.136 155.068,157.422 154.782,157.422 154.749 C 157.422 154.598,157.261 154.731,156.726 155.322 M106.785 166.862 C 106.559 167.422,106.600 167.893,106.852 167.640 C 106.969 167.523,107.034 167.220,106.997 166.966 C 106.938 166.559,106.913 166.547,106.785 166.862 M208.799 170.128 C 209.060 170.293,210.518 170.401,210.335 170.242 C 210.291 170.203,209.863 170.121,209.385 170.060 C 208.823 169.988,208.616 170.012,208.799 170.128 M222.784 170.459 C 222.734 170.540,223.028 170.605,223.438 170.605 C 223.847 170.605,224.141 170.540,224.091 170.459 C 224.041 170.378,223.747 170.313,223.438 170.313 C 223.128 170.313,222.834 170.378,222.784 170.459 M271.631 182.755 C 271.873 182.802,272.268 182.802,272.510 182.755 C 272.751 182.708,272.554 182.670,272.070 182.670 C 271.587 182.670,271.389 182.708,271.631 182.755 M271.731 188.031 C 272.028 188.076,272.468 188.074,272.708 188.028 C 272.948 187.982,272.705 187.945,272.168 187.946 C 271.631 187.948,271.434 187.986,271.731 188.031 M193.999 189.258 C 193.999 189.741,194.037 189.939,194.083 189.697 C 194.130 189.456,194.130 189.060,194.083 188.818 C 194.037 188.577,193.999 188.774,193.999 189.258 M255.127 189.746 C 255.130 190.176,255.170 190.329,255.216 190.086 C 255.263 189.843,255.261 189.491,255.212 189.304 C 255.163 189.118,255.125 189.316,255.127 189.746 M141.846 189.941 C 141.848 190.371,141.888 190.524,141.935 190.281 C 141.982 190.038,141.980 189.686,141.931 189.500 C 141.882 189.313,141.844 189.512,141.846 189.941 M132.280 191.406 C 132.280 191.890,132.318 192.087,132.364 191.846 C 132.411 191.604,132.411 191.208,132.364 190.967 C 132.318 190.725,132.280 190.923,132.280 191.406 M263.271 191.748 L 262.598 192.480 263.330 191.807 C 263.733 191.437,264.063 191.108,264.063 191.075 C 264.063 190.926,263.897 191.066,263.271 191.748 M255.352 194.141 C 255.352 195.806,255.382 196.487,255.419 195.654 C 255.455 194.822,255.455 193.459,255.419 192.627 C 255.382 191.794,255.352 192.476,255.352 194.141 M194.531 191.467 C 194.531 191.501,194.817 191.787,195.166 192.102 L 195.801 192.676 195.227 192.041 C 194.692 191.449,194.531 191.316,194.531 191.467 M132.287 197.754 C 132.288 198.398,132.325 198.639,132.368 198.288 C 132.412 197.936,132.411 197.409,132.366 197.116 C 132.322 196.822,132.286 197.109,132.287 197.754 M141.842 197.461 C 141.842 197.837,141.882 197.991,141.932 197.803 C 141.981 197.615,141.981 197.307,141.932 197.119 C 141.882 196.931,141.842 197.085,141.842 197.461 M255.123 198.438 C 255.123 198.813,255.164 198.967,255.213 198.779 C 255.262 198.591,255.262 198.284,255.213 198.096 C 255.164 197.908,255.123 198.062,255.123 198.438 M259.793 203.125 C 259.793 203.286,259.869 203.594,259.961 203.809 C 260.067 204.055,260.129 204.091,260.129 203.906 C 260.129 203.745,260.053 203.437,259.961 203.223 C 259.855 202.976,259.793 202.940,259.793 203.125 M184.620 204.590 C 184.622 205.020,184.662 205.172,184.708 204.929 C 184.755 204.686,184.753 204.335,184.705 204.148 C 184.656 203.961,184.617 204.160,184.620 204.590 M176.367 208.105 C 176.732 208.481,177.074 208.789,177.127 208.789 C 177.181 208.789,176.927 208.481,176.563 208.105 C 176.198 207.729,175.856 207.422,175.802 207.422 C 175.749 207.422,176.003 207.729,176.367 208.105 M103.851 209.519 C 103.806 209.816,103.768 209.619,103.767 209.082 C 103.765 208.545,103.802 208.302,103.848 208.542 C 103.895 208.782,103.896 209.222,103.851 209.519 M104.701 216.032 C 104.709 216.292,104.795 216.680,104.892 216.895 C 105.015 217.167,105.033 217.048,104.950 216.504 C 104.812 215.597,104.681 215.349,104.701 216.032 M105.101 217.773 C 105.092 218.042,105.169 218.394,105.273 218.555 C 105.515 218.928,105.515 218.526,105.273 217.773 L 105.117 217.285 105.101 217.773 M105.485 219.434 C 105.480 219.648,105.560 219.956,105.664 220.117 C 105.915 220.505,105.915 220.018,105.664 219.434 L 105.496 219.043 105.485 219.434 M270.850 219.270 C 270.984 219.324,271.095 219.515,271.097 219.694 C 271.099 219.968,271.128 219.974,271.279 219.736 C 271.506 219.378,271.363 219.136,270.936 219.156 C 270.732 219.166,270.699 219.209,270.850 219.270 M188.625 225.138 C 188.868 225.185,189.220 225.183,189.407 225.134 C 189.593 225.085,189.395 225.047,188.965 225.049 C 188.535 225.051,188.382 225.091,188.625 225.138 M207.571 225.138 C 207.814 225.185,208.165 225.183,208.352 225.134 C 208.539 225.085,208.340 225.047,207.910 225.049 C 207.480 225.051,207.328 225.091,207.571 225.138 M190.967 225.333 C 191.208 225.380,191.604 225.380,191.846 225.333 C 192.087 225.287,191.890 225.249,191.406 225.249 C 190.923 225.249,190.725 225.287,190.967 225.333 M204.544 225.335 C 204.841 225.380,205.280 225.379,205.520 225.333 C 205.760 225.286,205.518 225.250,204.980 225.251 C 204.443 225.253,204.247 225.291,204.544 225.335 M249.506 233.447 L 248.340 234.668 249.561 233.502 C 250.694 232.419,250.871 232.227,250.726 232.227 C 250.696 232.227,250.147 232.776,249.506 233.447 M246.967 235.986 L 245.801 237.207 247.021 236.041 C 247.693 235.400,248.242 234.851,248.242 234.821 C 248.242 234.676,248.049 234.852,246.967 235.986 M150.586 235.217 C 150.586 235.251,150.872 235.537,151.221 235.852 L 151.855 236.426 151.282 235.791 C 150.747 235.199,150.586 235.066,150.586 235.217 M259.650 237.842 C 259.023 238.567,258.714 238.984,258.964 238.770 C 259.485 238.322,261.020 236.523,260.882 236.523 C 260.831 236.523,260.277 237.117,259.650 237.842 M192.822 255.017 C 193.010 255.067,193.318 255.067,193.506 255.017 C 193.694 254.968,193.540 254.928,193.164 254.928 C 192.788 254.928,192.634 254.968,192.822 255.017 M204.736 255.017 C 204.924 255.067,205.232 255.067,205.420 255.017 C 205.608 254.968,205.454 254.928,205.078 254.928 C 204.702 254.928,204.548 254.968,204.736 255.017 M197.519 255.224 C 198.465 255.260,199.959 255.259,200.840 255.223 C 201.721 255.187,200.947 255.158,199.121 255.158 C 197.295 255.158,196.574 255.188,197.519 255.224 M131.348 264.258 C 132.310 265.225,133.141 266.016,133.195 266.016 C 133.249 266.016,132.505 265.225,131.543 264.258 C 130.581 263.291,129.749 262.500,129.696 262.500 C 129.642 262.500,130.385 263.291,131.348 264.258 M134.180 266.858 C 134.180 266.892,134.465 267.177,134.814 267.493 L 135.449 268.066 134.876 267.432 C 134.341 266.840,134.180 266.707,134.180 266.858 M135.938 268.420 C 135.938 268.454,136.223 268.740,136.572 269.055 L 137.207 269.629 136.633 268.994 C 136.099 268.402,135.938 268.270,135.938 268.420 M237.402 284.961 C 237.249 285.210,237.701 285.210,238.086 284.961 C 238.324 284.807,238.299 284.771,237.951 284.769 C 237.716 284.767,237.469 284.854,237.402 284.961 M235.352 285.742 C 235.352 285.850,235.478 285.938,235.633 285.938 C 235.788 285.938,235.969 285.850,236.035 285.742 C 236.102 285.635,235.975 285.547,235.754 285.547 C 235.533 285.547,235.352 285.635,235.352 285.742 M233.609 286.305 C 233.242 286.371,232.906 286.531,232.864 286.660 C 232.787 286.893,233.021 286.848,234.570 286.330 C 235.167 286.130,234.649 286.117,233.609 286.305 M230.859 287.152 C 230.046 287.506,230.896 287.570,231.872 287.228 L 232.715 286.933 232.031 286.936 C 231.655 286.937,231.128 287.035,230.859 287.152 M176.270 289.648 C 176.484 289.741,176.792 289.816,176.953 289.816 C 177.138 289.816,177.102 289.754,176.855 289.648 C 176.641 289.556,176.333 289.481,176.172 289.481 C 175.987 289.481,176.023 289.543,176.270 289.648 M178.027 290.039 C 178.242 290.131,178.594 290.204,178.809 290.201 C 179.123 290.197,179.103 290.165,178.711 290.039 C 178.043 289.825,177.530 289.825,178.027 290.039 M179.785 290.430 C 180.000 290.522,180.396 290.595,180.664 290.592 L 181.152 290.586 180.664 290.430 C 180.396 290.344,180.000 290.271,179.785 290.268 L 179.395 290.262 179.785 290.430 M181.738 290.810 C 182.110 290.979,183.553 291.096,183.382 290.943 C 183.337 290.903,182.861 290.817,182.324 290.751 C 181.667 290.671,181.475 290.691,181.738 290.810 " stroke="none" fill="#a94d85" fill-rule="evenodd"></path></g></svg>