<svg width="313" height="313" viewBox="0 0 313 313" fill="none" xmlns="http://www.w3.org/2000/svg">
<path d="M156.233 312.051C242.403 312.051 312.258 242.196 312.258 156.025C312.258 69.8544 242.403 -0.000640869 156.233 -0.000640869C70.062 -0.000640869 0.206955 69.8544 0.206955 156.025C0.206955 242.196 70.062 312.051 156.233 312.051Z" fill="url(#paint0_linear_1_19)"/>
<path d="M158.831 272.471C61.0669 272.953 33.3238 226.979 33.2842 146.879C33.2642 106.606 71.0019 37.101 156.598 38.2121C220.766 39.045 276.489 91.2155 277.189 141.924C278.33 224.583 260.272 271.97 158.831 272.471Z" fill="#222341"/>
<path d="M270.201 202.435C287.624 202.435 301.747 187.893 301.747 169.955C301.747 152.017 287.624 137.476 270.201 137.476C252.778 137.476 238.654 152.017 238.654 169.955C238.654 187.893 252.778 202.435 270.201 202.435Z" fill="#FDFFF2"/>
<path d="M158.183 256.989C73.3967 257.407 49.3363 217.536 49.302 148.069C49.2846 113.143 82.0128 52.864 156.246 53.8276C211.897 54.55 260.223 99.7951 260.83 143.772C261.819 215.459 246.158 256.556 158.183 256.989Z" fill="#FDFFF2"/>
<path d="M271.359 191.184C282.348 191.184 291.255 181.808 291.255 170.241C291.255 158.675 282.348 149.298 271.359 149.298C260.371 149.298 251.464 158.675 251.464 170.241C251.464 181.808 260.371 191.184 271.359 191.184Z" fill="#222341"/>
<path d="M241.69 181.585C241.69 181.585 231.917 206.717 155.3 208.637C78.6835 210.556 67.8629 180.887 67.8629 180.887C67.8629 180.887 52.8537 130.1 93.5182 92.0538C134.183 54.0073 183.573 73.0305 183.573 73.0305C183.573 73.0305 236.125 89.9215 243.086 144.062C245.762 164.87 241.69 181.585 241.69 181.585Z" fill="#1E2140"/>
<path d="M125.02 183.68C129.502 183.68 133.135 180.202 133.135 175.913C133.135 171.624 129.502 168.147 125.02 168.147C120.538 168.147 116.905 171.624 116.905 175.913C116.905 180.202 120.538 183.68 125.02 183.68Z" fill="#FEFFF2"/>
<path d="M153.904 158.722C157.663 158.722 160.71 155.519 160.71 151.567C160.71 147.615 157.663 144.411 153.904 144.411C150.145 144.411 147.097 147.615 147.097 151.567C147.097 155.519 150.145 158.722 153.904 158.722Z" fill="#FEFFF2"/>
<path d="M172.316 121.549C174.871 121.549 176.941 119.517 176.941 117.011C176.941 114.505 174.871 112.473 172.316 112.473C169.762 112.473 167.691 114.505 167.691 117.011C167.691 119.517 169.762 121.549 172.316 121.549Z" fill="#FEFFF2"/>
<path d="M193.696 128.879C195.72 128.879 197.361 127.199 197.361 125.126C197.361 123.054 195.72 121.374 193.696 121.374C191.672 121.374 190.031 123.054 190.031 125.126C190.031 127.199 191.672 128.879 193.696 128.879Z" fill="#FEFFF2"/>
<defs>
<linearGradient id="paint0_linear_1_19" x1="46.9797" y1="269.816" x2="266.184" y2="43.6307" gradientUnits="userSpaceOnUse">
<stop stop-color="#514C86"/>
<stop offset="0.245545" stop-color="#EE5569"/>
<stop offset="0.753915" stop-color="#FFA600"/>
</linearGradient>
</defs>
</svg>
